<?xml version="1.0" encoding="utf-8"?>
<!-- Generator: Adobe Illustrator 26.0.1, SVG Export Plug-In . SVG Version: 6.00 Build 0)  -->
<svg version="1.1" id="Capa_1" xmlns="http://www.w3.org/2000/svg" xmlns:xlink="http://www.w3.org/1999/xlink" x="0px" y="0px"
	 viewBox="0 0 579.7 70.8" style="enable-background:new 0 0 579.7 70.8;" xml:space="preserve">
<style type="text/css">
	.st0{fill:#068298;}
	.st1{fill-rule:evenodd;clip-rule:evenodd;fill:#FFFFFF;}
	.st2{fill-rule:evenodd;clip-rule:evenodd;fill:#068298;}
	.st3{fill-rule:evenodd;clip-rule:evenodd;fill:#FFE00A;}
	.st4{fill-rule:evenodd;clip-rule:evenodd;fill:#06818F;}
</style>
<path class="st0" d="M247.3,24.7h2.5v21.8h-2.5V24.7z"/>
<path class="st0" d="M259.5,29.2H258v-2.5h6.6c5,0,8.3,3,8.3,8.1s-3.3,8.1-8.3,8.1H261c-1.1,0-1.6-0.5-1.6-1.6V29.2z M263,40.3h1.5
	c3.2,0,5.3-1.9,5.3-5.6c0-3.6-2.1-5.5-5.3-5.5h-2v10.6C262.5,40.1,262.7,40.3,263,40.3z"/>
<path class="st0" d="M280.3,30.9c3.6,0,6.4,2.5,6.4,6.1c0,3.6-2.8,6.1-6.4,6.1c-3.5,0-6.4-2.5-6.4-6.1
	C273.9,33.5,276.8,30.9,280.3,30.9z M280.3,40.7c1.9,0,3.5-1.5,3.5-3.6c0-2.1-1.6-3.6-3.5-3.6c-1.9,0-3.4,1.5-3.4,3.6
	C276.8,39.2,278.4,40.7,280.3,40.7z"/>
<path class="st0" d="M288.8,34.2c0-0.3-0.2-0.5-0.5-0.5h-0.9v-2.5h2.7c1,0,1.5,0.5,1.5,1.3v0.3c0,0.3,0,0.5,0,0.5h0
	c0.5-1,1.8-2.4,4.1-2.4c2.6,0,4.1,1.3,4.1,4.4v4.5c0,0.3,0.2,0.5,0.5,0.5h0.9v2.4h-2.8c-1.1,0-1.6-0.5-1.6-1.6V36
	c0-1.4-0.4-2.4-1.8-2.4c-1.6,0-2.7,1-3.1,2.4c-0.2,0.5-0.2,1-0.2,1.6v5.3h-2.9V34.2z"/>
<path class="st0" d="M307.2,30.9c2.5,0,3.4,1.4,3.4,1.4h0c0,0,0-0.3,0-0.7v-2.1c0-0.3-0.2-0.5-0.5-0.5h-0.9v-2.5h2.8
	c1.1,0,1.6,0.5,1.6,1.6v11.7c0,0.3,0.2,0.5,0.5,0.5h0.9v2.4h-2.7c-1,0-1.4-0.5-1.4-1.2c0-0.3,0-0.4,0-0.4h0c0,0-1,1.9-3.6,1.9
	c-3.1,0-5.2-2.5-5.2-6.1C301.9,33.3,304.1,30.9,307.2,30.9z M310.6,37c0-1.8-0.9-3.6-2.9-3.6c-1.6,0-2.9,1.3-2.9,3.6
	c0,2.2,1.2,3.6,2.9,3.6C309.2,40.7,310.6,39.6,310.6,37z"/>
<path class="st0" d="M321.5,30.9c3.3,0,5.2,2.4,5.2,5.5c0,0.3-0.1,1.1-0.1,1.1h-8c0.2,2.1,1.7,3.1,3.5,3.1c1.9,0,3.3-1.3,3.3-1.3
	l1.2,2c0,0-1.8,1.8-4.7,1.8c-3.9,0-6.3-2.8-6.3-6.1C315.6,33.4,318,30.9,321.5,30.9z M323.7,35.5c0-1.4-1-2.3-2.2-2.3
	c-1.5,0-2.5,0.9-2.9,2.3H323.7z"/>
<path class="st0" d="M339.4,30.9c3.3,0,5.2,2.4,5.2,5.5c0,0.3-0.1,1.1-0.1,1.1h-8c0.2,2.1,1.7,3.1,3.5,3.1c1.9,0,3.3-1.3,3.3-1.3
	l1.2,2c0,0-1.8,1.8-4.7,1.8c-3.9,0-6.2-2.8-6.2-6.1C333.5,33.4,335.9,30.9,339.4,30.9z M341.6,35.5c0-1.4-1-2.3-2.2-2.3
	c-1.5,0-2.5,0.9-2.9,2.3H341.6z"/>
<path class="st0" d="M346.9,39.1c0,0,1.5,1.7,3.5,1.7c0.9,0,1.6-0.4,1.6-1.1c0-1.6-6.1-1.6-6.1-5.4c0-2.3,2.1-3.4,4.5-3.4
	c1.6,0,4.1,0.5,4.1,2.4v1.2h-2.6V34c0-0.5-0.8-0.8-1.5-0.8c-1,0-1.7,0.4-1.7,1c0,1.8,6.2,1.5,6.2,5.3c0,2.2-1.9,3.6-4.5,3.6
	c-3.2,0-4.8-2.1-4.8-2.1L346.9,39.1z"/>
<path class="st0" d="M357.1,33.5h-1.5v-2.3h1.6V28h2.8v3.2h2.6v2.3H360v4.7c0,1.9,1.5,2.2,2.3,2.2c0.3,0,0.5,0,0.5,0v2.5
	c0,0-0.4,0.1-0.9,0.1c-1.6,0-4.8-0.5-4.8-4.4V33.5z"/>
<path class="st0" d="M369.6,30.9c3.3,0,5.2,2.4,5.2,5.5c0,0.3-0.1,1.1-0.1,1.1h-8c0.2,2.1,1.7,3.1,3.5,3.1c1.9,0,3.3-1.3,3.3-1.3
	l1.2,2c0,0-1.8,1.8-4.7,1.8c-3.9,0-6.2-2.8-6.2-6.1C363.7,33.4,366.1,30.9,369.6,30.9z M371.8,35.5c0-1.4-1-2.3-2.2-2.3
	c-1.5,0-2.5,0.9-2.9,2.3H371.8z M370.2,26.7h2.8l-2.4,3.1h-2.1L370.2,26.7z"/>
<path class="st0" d="M377.2,39.1c0,0,1.5,1.7,3.5,1.7c0.9,0,1.6-0.4,1.6-1.1c0-1.6-6.1-1.6-6.1-5.4c0-2.3,2.1-3.4,4.5-3.4
	c1.6,0,4.1,0.5,4.1,2.4v1.2h-2.6V34c0-0.5-0.8-0.8-1.5-0.8c-1,0-1.7,0.4-1.7,1c0,1.8,6.2,1.5,6.2,5.3c0,2.2-1.9,3.6-4.5,3.6
	c-3.2,0-4.8-2.1-4.8-2.1L377.2,39.1z"/>
<path class="st0" d="M390.3,39.9l-2.2,5.3H386l1.5-5.3H390.3z"/>
<path class="st0" d="M403.3,30.9c3.3,0,5.2,2.4,5.2,5.5c0,0.3-0.1,1.1-0.1,1.1h-8c0.2,2.1,1.7,3.1,3.5,3.1c1.9,0,3.3-1.3,3.3-1.3
	l1.2,2c0,0-1.8,1.8-4.7,1.8c-3.9,0-6.3-2.8-6.3-6.1C397.4,33.4,399.8,30.9,403.3,30.9z M405.5,35.5c0-1.4-1-2.3-2.2-2.3
	c-1.5,0-2.5,0.9-2.9,2.3H405.5z"/>
<path class="st0" d="M410.8,39.1c0,0,1.5,1.7,3.5,1.7c0.9,0,1.6-0.4,1.6-1.1c0-1.6-6.1-1.6-6.1-5.4c0-2.3,2.1-3.4,4.5-3.4
	c1.6,0,4.1,0.5,4.1,2.4v1.2h-2.6V34c0-0.5-0.8-0.8-1.5-0.8c-1,0-1.7,0.4-1.7,1c0,1.8,6.2,1.5,6.2,5.3c0,2.2-1.9,3.6-4.5,3.6
	c-3.2,0-4.8-2.1-4.8-2.1L410.8,39.1z"/>
<path class="st0" d="M421,33.5h-1.5v-2.3h1.6V28h2.8v3.2h2.6v2.3h-2.6v4.7c0,1.9,1.5,2.2,2.3,2.2c0.3,0,0.5,0,0.5,0v2.5
	c0,0-0.4,0.1-0.9,0.1c-1.6,0-4.8-0.5-4.8-4.4V33.5z"/>
<path class="st0" d="M434.7,35.5h0.4v-0.1c0-1.7-0.7-2.3-2.1-2.3c-0.5,0-1.6,0.1-1.6,0.8v0.6h-2.7v-1.2c0-2.2,3.1-2.4,4.3-2.4
	c3.9,0,5,2,5,4.6v4.3c0,0.3,0.2,0.5,0.5,0.5h0.9v2.4h-2.6c-1.1,0-1.5-0.6-1.5-1.3c0-0.3,0-0.5,0-0.5h0c0,0-0.9,2.1-3.5,2.1
	c-2.1,0-4-1.3-4-3.6C427.8,35.8,432.8,35.5,434.7,35.5z M432.5,40.9c1.6,0,2.6-1.6,2.6-3.1v-0.3h-0.5c-1.5,0-3.9,0.2-3.9,1.8
	C430.7,40.1,431.3,40.9,432.5,40.9z"/>
<path class="st0" d="M441.2,34.2c0-0.3-0.2-0.5-0.5-0.5h-0.9v-2.5h2.7c1,0,1.5,0.5,1.5,1.3v0.3c0,0.3,0,0.5,0,0.5h0
	c0.5-1.1,1.9-2.4,3.8-2.4c1.8,0,2.9,0.8,3.4,2.4h0c0.6-1.3,2.1-2.4,4-2.4c2.4,0,3.8,1.4,3.8,4.4v4.5c0,0.3,0.2,0.5,0.5,0.5h0.9v2.4
	h-2.7c-1.1,0-1.6-0.5-1.6-1.6v-5.4c0-1.3-0.3-2.3-1.6-2.3c-1.4,0-2.5,1.2-2.8,2.7c-0.1,0.5-0.2,0.9-0.2,1.5v5.1h-2.9v-6.9
	c0-1.3-0.2-2.3-1.6-2.3c-1.5,0-2.4,1.2-2.8,2.7c-0.1,0.5-0.2,0.9-0.2,1.5v5.1h-2.9V34.2z"/>
<path class="st0" d="M467.5,30.9c3.6,0,6.4,2.5,6.4,6.1c0,3.6-2.8,6.1-6.4,6.1c-3.5,0-6.4-2.5-6.4-6.1
	C461.1,33.5,464,30.9,467.5,30.9z M467.5,40.7c1.9,0,3.5-1.5,3.5-3.6c0-2.1-1.6-3.6-3.5-3.6c-1.9,0-3.4,1.5-3.4,3.6
	C464,39.2,465.6,40.7,467.5,40.7z"/>
<path class="st0" d="M476.1,39.1c0,0,1.5,1.7,3.5,1.7c0.9,0,1.6-0.4,1.6-1.1c0-1.6-6.1-1.6-6.1-5.4c0-2.3,2.1-3.4,4.5-3.4
	c1.6,0,4.1,0.5,4.1,2.4v1.2H481V34c0-0.5-0.8-0.8-1.5-0.8c-1,0-1.7,0.4-1.7,1c0,1.8,6.2,1.5,6.2,5.3c0,2.2-1.9,3.6-4.5,3.6
	c-3.2,0-4.8-2.1-4.8-2.1L476.1,39.1z"/>
<path class="st0" d="M497,30.9c1.5,0,4.2,0.6,4.2,2.6v1.4h-2.6v-0.6c0-0.6-1-0.9-1.7-0.9c-2,0-3.4,1.5-3.4,3.6
	c0,2.4,1.8,3.6,3.6,3.6c2,0,3.4-1.6,3.4-1.6l1.2,2c0,0-1.7,2.1-4.9,2.1c-3.8,0-6.3-2.7-6.3-6.1C490.7,33.7,493.1,30.9,497,30.9z"/>
<path class="st0" d="M508.9,30.9c3.6,0,6.4,2.5,6.4,6.1c0,3.6-2.8,6.1-6.4,6.1c-3.5,0-6.4-2.5-6.4-6.1
	C502.5,33.5,505.3,30.9,508.9,30.9z M508.9,40.7c1.9,0,3.5-1.5,3.5-3.6c0-2.1-1.6-3.6-3.5-3.6c-1.9,0-3.4,1.5-3.4,3.6
	C505.4,39.2,507,40.7,508.9,40.7z"/>
<path class="st0" d="M517.4,34.2c0-0.3-0.2-0.5-0.5-0.5H516v-2.5h2.7c1,0,1.5,0.5,1.5,1.3v0.3c0,0.3,0,0.5,0,0.5h0
	c0.5-1,1.8-2.4,4.1-2.4c2.6,0,4.1,1.3,4.1,4.4v4.5c0,0.3,0.2,0.5,0.5,0.5h0.9v2.4H527c-1.1,0-1.6-0.5-1.6-1.6V36
	c0-1.4-0.4-2.4-1.8-2.4c-1.6,0-2.7,1-3.1,2.4c-0.2,0.5-0.2,1-0.2,1.6v5.3h-2.9V34.2z"/>
<path class="st0" d="M531.7,33.5h-1.5v-2.3h1.6V28h2.8v3.2h2.6v2.3h-2.6v4.7c0,1.9,1.5,2.2,2.3,2.2c0.3,0,0.5,0,0.5,0v2.5
	c0,0-0.4,0.1-0.9,0.1c-1.6,0-4.8-0.5-4.8-4.4V33.5z"/>
<path class="st0" d="M539.7,34.2c0-0.3-0.2-0.5-0.5-0.5h-0.9v-2.5h2.8c1.1,0,1.5,0.5,1.5,1.6v7.1c0,0.3,0.2,0.5,0.5,0.5h0.9v2.4
	h-2.8c-1.1,0-1.5-0.5-1.5-1.6V34.2z M539.8,26.6h2.5v2.7h-2.5V26.6z"/>
<path class="st0" d="M550,30.9c2.7,0,3.6,1.6,3.6,1.6h0c0,0,0-0.1,0-0.3c0-0.5,0.4-1.1,1.3-1.1h2.7v2.5h-0.9c-0.3,0-0.5,0.2-0.5,0.5
	v8c0,4-3.1,5.5-6.1,5.5c-1.5,0-3-0.4-4.1-1l0.9-2.3c0,0,1.4,0.8,3.2,0.8c1.8,0,3.3-0.8,3.3-2.9v-0.5c0-0.3,0-0.6,0-0.6h0
	c-0.7,1-1.7,1.5-3.2,1.5c-3.3,0-5.2-2.7-5.2-5.9C544.8,33.5,546.6,30.9,550,30.9z M553.4,36.7c0-2.6-1.3-3.4-2.9-3.4
	c-1.8,0-2.7,1.3-2.7,3.2c0,2,1,3.5,2.9,3.5C552,40.2,553.4,39.4,553.4,36.7z"/>
<path class="st0" d="M564.7,30.9c3.6,0,6.4,2.5,6.4,6.1c0,3.6-2.8,6.1-6.4,6.1c-3.5,0-6.4-2.5-6.4-6.1
	C558.3,33.5,561.1,30.9,564.7,30.9z M564.7,40.7c1.9,0,3.5-1.5,3.5-3.6c0-2.1-1.6-3.6-3.5-3.6c-1.9,0-3.4,1.5-3.4,3.6
	C561.2,39.2,562.8,40.7,564.7,40.7z"/>
<path class="st0" d="M572.7,39.9h2.8v2.9h-2.8V39.9z"/>
<g>
	<rect class="st1" width="227.8" height="58.2"/>
	<path class="st2" d="M93.7,3h130.4v52H68.2c4.2-1.5,8-3.9,11.1-7.4c9.6-10.8,10.5-20.5,2-24.9c-12.8-4.8-26,5-27.9,13.3
		c-2,8,4,9.7,7.8,9c3.5-0.8,6.4-2.8,8.3-6.2c1.4-3.7-0.4-5.5-4.2-4.7c-1.7,0.6-2.6,2-3.2,2.9c-1-2.2,1.3-4.9,5.5-6.9
		c3.7-2,12.9-1.3,10.6,7.2c-2.4,6.6-8.6,11.8-20.6,13.1c-11.1,0.4-14.7-6.7-9.8-16.9C52.6,22.9,71,11.7,93.7,3"/>
	<path class="st3" d="M173.2,29.7v-3.4l0.8-1.5h0.3c0.2,0.1,0.3,0.4,0.4,0.5c0.2,0.2,0.5,0.5,0.8,0.7c0.3,0.2,0.7,0.4,1.1,0.5
		c0.5,0.2,1,0.2,1.6,0.2c0.8,0,1.6-0.1,2-0.4c0.5-0.2,0.9-0.6,1.1-1.1c0.1-0.4,0-0.7-0.2-0.9c-0.2-0.2-0.8-0.4-1.7-0.7
		c-1.4-0.5-2.4-1.1-2.8-1.9c-0.4-0.7-0.5-1.5-0.2-2.6c0.5-1.8,1.6-3.1,3.1-4.2c1.6-1,3.4-1.5,5.5-1.5c0.9,0,1.8,0.1,2.7,0.4
		c0.8,0.2,1.5,0.5,1.8,0.8l-1.9,4h-0.4c-0.3-0.5-0.8-0.9-1.4-1.3c-0.7-0.3-1.4-0.5-2.1-0.5c-0.8,0-1.5,0.1-2,0.4
		c-0.5,0.3-0.8,0.7-1,1.2c-0.2,0.4,0,0.7,0.3,0.9c0.3,0.2,0.8,0.5,1.6,0.7c1.4,0.5,2.3,1,2.8,1.6c0.5,0.7,0.5,1.6,0.1,2.8
		c-0.5,1.8-1.5,3.2-3.1,4.2c-1.5,1-3.3,1.5-5.5,1.5c-1.1,0-2.1-0.1-3-0.3C173.7,29.8,173.4,29.8,173.2,29.7 M173.2,22.1
		c0.4-0.7,0.7-1.5,0.9-2.3c0.6-1.9,0.5-3.5-0.1-4.6c-0.2-0.4-0.5-0.7-0.8-0.9V22.1z M173.2,14.2v7.8c-0.2,0.7-0.6,1.3-0.9,1.8
		c-0.8,1.3-1.7,2.5-2.7,3.4c-1,0.9-2,1.6-3,2.2v-3.6c0.3-0.2,0.6-0.5,0.8-0.9c0.5-0.7,1-1.4,1.4-2.1c0.4-0.9,0.8-1.8,1.1-2.9
		c0.2-1,0.3-1.8,0.1-2.3c-0.1-0.5-0.6-0.8-1.3-0.8c-0.6,0-1.1,0.2-1.6,0.5c-0.2,0.2-0.5,0.3-0.7,0.5v-3.6c0.1,0,0.1-0.1,0.2-0.1
		c1.1-0.5,2.4-0.8,3.6-0.8C171.6,13.5,172.5,13.8,173.2,14.2 M173.2,26.3l-1.3,2.7c0.3,0.2,0.8,0.5,1.3,0.7V26.3z M166.6,14.4V18
		c-0.3,0.2-0.6,0.5-0.9,0.9c-0.5,0.6-0.9,1.4-1.4,2.2c-0.5,0.8-0.8,1.8-1.1,2.7c-0.3,1.1-0.4,1.8-0.2,2.3c0.2,0.5,0.7,0.7,1.3,0.7
		c0.5,0,1-0.2,1.5-0.5c0.2-0.1,0.4-0.3,0.7-0.5v3.6c0,0-0.1,0.1-0.1,0.1c-1.1,0.5-2.3,0.8-3.6,0.8c-0.9,0-1.7-0.2-2.3-0.4v-9.4
		c0.1-0.2,0.2-0.4,0.3-0.6c0.8-1.2,1.7-2.4,2.7-3.4C164.5,15.7,165.5,14.9,166.6,14.4 M160.6,17.8l1.8-3.8c-0.1,0-0.2-0.1-0.4-0.1
		h-0.5c-0.3,0-0.6,0.1-0.9,0.2V17.8z M160.6,14.1v3.8l-0.5,1h-0.4c-0.1-0.1-0.4-0.2-0.7-0.2c-0.3-0.1-0.6-0.1-0.9-0.1
		c-0.5,0-1.1,0-1.5,0.2c-0.5,0.1-1.1,0.2-1.7,0.5l-5.1,10.6h-2v-4.2l5.7-11.7h3.9l-1.1,2.3c0.9-0.7,1.8-1.3,2.7-1.7
		C159.6,14.3,160.2,14.1,160.6,14.1 M160.6,20.5c-0.6,1.1-1.1,2.2-1.4,3.4c-0.6,2-0.6,3.6,0.1,4.7c0.3,0.5,0.8,1,1.4,1.3V20.5z
		 M148,18.1l2-4.1h-2V18.1z M148,11.7v-2l0.9-1.8h4.1l-1.8,3.8H148z M141.3,8.8h0.2c0.9,0.3,1.7,0.8,2.7,1.5l-2.4,4.9h-0.5V8.8z
		 M148,9.7v2H147L148,9.7z M148,14h-1.9l-4.8,9.9v5.9h1.1l5.6-11.8V14z M148,25.7v4.2h-1.9L148,25.7z M128.5,30.2
		c-2.3,0-3.9-0.7-4.7-2.1c-0.9-1.4-0.9-3.4-0.2-6c1.2-4.1,3.2-7.4,6-9.9c2.8-2.5,5.7-3.9,8.8-3.9c1.1,0,2,0.2,2.9,0.4v6.5
		c-0.5-1.1-1.1-1.9-1.8-2.2c-0.6-0.5-1.4-0.7-2.4-0.7c-0.9,0-1.9,0.3-2.8,0.8c-0.9,0.5-1.8,1.2-2.6,2.1c-0.8,0.8-1.4,1.8-2,2.8
		c-0.6,1.1-1.1,2.3-1.5,3.5c-0.5,1.7-0.5,2.9,0,3.8c0.5,0.8,1.4,1.1,3,1.1h0.5c0.2,0,0.4,0,0.5-0.1l2-4.1H131l1.9-4h7.4l-4.9,10.4
		c-1.1,0.5-2.3,0.9-3.4,1.2C130.8,30.1,129.7,30.2,128.5,30.2 M141.3,23.9l-2.8,5.9h2.8V23.9z"/>
	<path class="st1" d="M203.2,29.8h-4.2V19.3l1.1,2.8l2.1-4.5h4.1l-0.8,1.6c-0.5,1.2-1.2,2.2-1.9,3.2c-0.8,1-1.5,1.8-2.4,2.5l2,4.7
		L203.2,29.8z M199.1,8.6v2.9c0.3-0.1,0.5-0.1,0.8-0.1c0.5,0,0.8,0.1,0.9,0.5c0.1,0.3,0.1,0.7-0.1,1.2c-0.1,0.6-0.5,1.2-1.1,1.8
		c-0.1,0.2-0.4,0.5-0.6,0.7v2.5c0.8-0.3,1.5-0.6,2.1-1c0.7-0.5,1.3-0.9,1.8-1.4c0.5-0.5,0.9-1.1,1.3-1.6c0.4-0.6,0.6-1.2,0.8-1.8
		c0.4-1.2,0.1-2.2-0.5-2.9c-0.7-0.7-1.8-1.1-3.5-1.1C200.4,8.4,199.7,8.5,199.1,8.6 M199.1,29.8h-1l-0.8-1.8c-1.1,0.8-2.1,1.3-3,1.6
		v-3.1c0.3,0,0.6-0.1,0.8-0.1c0.5-0.2,0.9-0.5,1.4-0.8l-2.1-5.4c-0.1,0.1-0.2,0.1-0.2,0.1v-8.6c0.5-0.7,1-1.2,1.7-1.8
		c0.7-0.5,1.4-0.9,2.3-1.2c0.2-0.1,0.5-0.2,0.8-0.2v2.9c-0.2,0.1-0.5,0.2-0.7,0.4c-0.4,0.4-0.8,0.9-1,1.6c-0.2,0.5-0.2,0.9-0.1,1.5
		c0.1,0.5,0.3,1,0.6,1.5c0.4-0.3,0.8-0.6,1.1-0.9v2.5c-0.1,0.1-0.2,0.1-0.4,0.2l0.4,1V29.8z M194.3,29.7c-0.1,0-0.1,0.1-0.3,0.1
		c-1,0.3-1.8,0.5-2.6,0.5c-1.7,0-3-0.5-3.7-1.5c-0.8-0.9-0.8-2.3-0.3-3.9c0.2-0.9,0.5-1.5,0.9-2.2c0.4-0.7,0.9-1.3,1.4-1.9
		c0.5-0.5,1.1-1,1.7-1.5c0.6-0.4,1.3-0.8,2-1.1c-0.4-0.7-0.5-1.3-0.6-1.9c-0.1-0.6,0-1.2,0.2-2c0.2-0.8,0.6-1.5,1.2-2.2
		c0,0,0-0.1,0.1-0.1v8.6c-0.5,0.4-0.9,0.8-1.3,1.3c-0.4,0.5-0.6,1.1-0.8,1.6c-0.3,1-0.3,1.8-0.1,2.4c0.3,0.6,0.8,0.8,1.7,0.8h0.4
		V29.7z"/>
	<path class="st3" d="M186.9,49.2v-3.5l0.7-1.3h0.3c0.1,0.2,0.3,0.4,0.4,0.6c0.2,0.2,0.4,0.4,0.8,0.6c0.3,0.2,0.7,0.5,1.1,0.6
		c0.5,0.2,1,0.2,1.6,0.2c0.8,0,1.6-0.2,2-0.4c0.5-0.3,0.9-0.7,1.1-1.2c0.1-0.4,0-0.7-0.2-0.8c-0.2-0.2-0.8-0.5-1.7-0.8
		c-1.4-0.5-2.4-1.1-2.8-1.8c-0.4-0.7-0.5-1.6-0.1-2.7c0.5-1.8,1.6-3.1,3.1-4.2c1.6-1,3.4-1.5,5.5-1.5c0.9,0,1.8,0.2,2.7,0.4
		c0.8,0.2,1.4,0.5,1.7,0.8l-1.9,4h-0.4c-0.3-0.5-0.8-0.9-1.4-1.2c-0.6-0.4-1.4-0.5-2.1-0.5c-0.8,0-1.5,0.2-2,0.4
		c-0.5,0.3-0.9,0.7-1.1,1.2c-0.2,0.4,0,0.7,0.3,0.9c0.3,0.2,0.8,0.5,1.6,0.7c1.4,0.5,2.3,1,2.8,1.6c0.5,0.7,0.5,1.6,0.2,2.8
		c-0.5,1.8-1.5,3.2-3.1,4.2c-1.5,1-3.3,1.5-5.5,1.5c-1.1,0-2-0.1-3-0.4C187.2,49.4,187.1,49.3,186.9,49.2 M186.9,39.8l0.6-1.1
		c0.1-0.2,0.2-0.5,0.3-0.8c0.1-0.3,0.2-0.5,0.3-0.8c0.4-1.4,0.2-2.4-0.5-3c-0.2-0.2-0.5-0.4-0.8-0.5V39.8z M186.9,33.6v6.2l-4.5,9.6
		H179v-1.3l0.2-0.4c-0.1,0.1-0.1,0.1-0.2,0.2v-1.8c0.5-0.2,0.9-0.5,1.3-0.9l1.7-3.3c-0.8,0.1-1.4,0.2-2.1,0.2
		c-0.3,0.1-0.6,0.2-0.9,0.2v-2.8c0.2-0.1,0.3-0.1,0.5-0.1c1.2-0.2,2.5-0.3,3.9-0.5c0.1-0.1,0.1-0.2,0.2-0.2c0.1-0.1,0.1-0.3,0.2-0.5
		c0.2-0.7,0.1-1.2-0.3-1.4c-0.4-0.3-1.1-0.4-2-0.4c-0.7,0-1.4,0.1-2.3,0.4H179v-3.2c0.5-0.2,1-0.2,1.7-0.4c1-0.2,2-0.3,2.9-0.3
		C185.1,33.1,186.2,33.2,186.9,33.6 M186.9,45.7l-1.4,2.9c0.4,0.3,0.8,0.5,1.4,0.7V45.7z M179,33.8v3.2c-0.8,0.3-1.4,0.5-1.9,0.7
		h-0.4l1.7-3.8C178.7,33.8,178.8,33.8,179,33.8 M179,39.6v2.8c-0.3,0.1-0.5,0.1-0.7,0.2c-0.5,0.2-1,0.5-1.3,0.9
		c-0.4,0.3-0.6,0.8-0.8,1.5c-0.1,0.5-0.1,0.9,0.2,1.2c0.2,0.2,0.6,0.3,1.2,0.3c0.4,0,0.8-0.1,1.4-0.3c0-0.1,0.1-0.1,0.2-0.1v1.8
		c-0.3,0.1-0.6,0.4-1,0.6c-0.4,0.3-0.8,0.5-1.1,0.7c-0.5,0.2-0.9,0.4-1.3,0.5c-0.4,0.1-0.9,0.2-1.5,0.2c-0.2,0-0.3-0.1-0.5-0.1v-7.3
		c0.7-0.8,1.5-1.5,2.5-1.9C177,40.1,178,39.8,179,39.6 M179,48.1l-0.7,1.3h0.7V48.1z M173.7,37.1v-3.5h2l-1.4,3.1L173.7,37.1z
		 M173.7,33.5v3.5l-10.1,8.7h6.4l-1.7,3.6h-9.7v-3.3l10.5-9H163l1.7-3.5H173.7z M173.7,42.5c-0.1,0.1-0.1,0.1-0.1,0.2
		c-0.7,0.9-1.3,1.9-1.7,3.2c-0.3,1.2-0.3,2.1,0.2,2.8c0.3,0.6,0.9,1,1.7,1.1V42.5z M158.5,40.4l0.7-1.3c0.1-0.4,0.3-0.7,0.5-1
		c0.1-0.4,0.2-0.7,0.3-0.9c0.4-1.3,0.4-2.3,0-3c-0.3-0.5-0.8-0.8-1.4-1V40.4z M158.5,33.1v7.2l-4.3,9h-3.9l3.7-7.8
		c0.3-0.6,0.5-1.1,0.7-1.5c0.2-0.4,0.4-0.8,0.5-1.2c0.2-0.6,0.2-1,0.1-1.3c-0.1-0.3-0.5-0.5-1.2-0.5c-0.3,0-0.7,0.2-1.1,0.3
		c-0.5,0.2-1,0.5-1.6,0.8l-5.4,11.2h-2.7v-2.5l6.4-13.3h4l-0.8,1.8c1-0.7,1.9-1.2,2.7-1.6c0.8-0.4,1.6-0.6,2.4-0.6
		C158,33.1,158.3,33.1,158.5,33.1 M158.5,46.1l-0.2,0.2l-1.5,3.1h1.7V46.1z M143.2,39.4l0.4-0.8c0.1-0.2,0.2-0.5,0.4-0.8
		c0.1-0.3,0.2-0.5,0.2-0.8c0.4-1.4,0.3-2.4-0.4-3c-0.2-0.1-0.4-0.3-0.6-0.4V39.4z M143.2,33.7v5.7l-4.8,10h-3.2v-1.3l0.2-0.4
		c-0.1,0.1-0.2,0.1-0.2,0.2v-1.8c0.5-0.2,0.8-0.5,1.3-0.9l1.6-3.3c-0.7,0.1-1.4,0.2-2,0.2c-0.4,0.1-0.7,0.2-0.9,0.2v-2.8
		c0.2-0.1,0.3-0.1,0.5-0.1c1.2-0.2,2.5-0.3,3.9-0.5c0-0.1,0.1-0.2,0.2-0.2c0.1-0.1,0.1-0.3,0.2-0.5c0.2-0.7,0.1-1.2-0.3-1.4
		c-0.4-0.3-1.1-0.4-2-0.4c-0.7,0-1.4,0.1-2.3,0.4h-0.1v-3.2c0.5-0.2,1-0.2,1.7-0.4c1-0.2,2-0.3,2.9-0.3
		C141.4,33.1,142.4,33.3,143.2,33.7 M143.2,46.8l-1.2,2.5h1.2V46.8z M135.2,33.8v3.2c-0.8,0.3-1.4,0.5-1.9,0.7h-0.4l1.7-3.8
		C134.8,33.8,135,33.8,135.2,33.8 M135.2,39.6v2.8c-0.3,0.1-0.5,0.1-0.8,0.2c-0.5,0.2-0.9,0.5-1.2,0.9c-0.4,0.3-0.6,0.8-0.8,1.5
		c-0.1,0.5-0.1,0.9,0.2,1.2c0.2,0.2,0.6,0.3,1.2,0.3c0.4,0,0.8-0.1,1.4-0.3c0-0.1,0.1-0.1,0.1-0.1v1.8c-0.3,0.1-0.6,0.4-1,0.6
		c-0.5,0.3-0.8,0.5-1.1,0.7c-0.5,0.2-0.9,0.4-1.3,0.5c-0.4,0.1-0.9,0.2-1.5,0.2c-0.7,0-1.2-0.1-1.6-0.5v-5.2c0.3-0.6,0.6-1.1,1-1.5
		c0.7-0.8,1.6-1.5,2.6-2.1C133.2,40.1,134.1,39.8,135.2,39.6 M135.2,48.1l-0.7,1.3h0.7V48.1z M128.7,38.8v-5.3
		c0.3,0.2,0.5,0.4,0.6,0.7c0.4,0.7,0.4,1.7,0,3c-0.1,0.2-0.1,0.5-0.3,0.9C128.9,38.3,128.8,38.5,128.7,38.8 M112.6,27.5h0.1
		l-0.1,0.5V27.5z M128.7,33.4v5.3c-0.1,0.1-0.1,0.2-0.2,0.3l-4.9,10.3h-3.9l3.8-7.8c0.2-0.6,0.5-1.1,0.7-1.5
		c0.2-0.4,0.3-0.8,0.5-1.2c0.1-0.6,0.1-1,0-1.3c-0.2-0.3-0.5-0.5-1.1-0.5c-0.4,0-0.8,0.2-1.2,0.3c-0.5,0.2-1,0.5-1.6,0.8l-5.4,11.2
		h-2.6v-2.5l6.4-13.3h4l-0.9,1.8c1.1-0.7,1.9-1.2,2.7-1.6c0.8-0.4,1.5-0.6,2.3-0.6C127.8,33.1,128.3,33.2,128.7,33.4 M128.7,44.1
		c-0.2,0.5-0.5,1.1-0.7,1.7c-0.4,1.2-0.3,2.1,0.1,2.8c0.2,0.3,0.4,0.5,0.6,0.7V44.1z M112.6,39.2l2.7-5.7h-2.7V39.2z M112.6,31.3
		h3.9l1.9-3.8h-4.2l-1.6,3.4V31.3z M108.3,33.5h0.8l-0.8,1.8V33.5z M108.3,27.5c0.5-0.1,1.1-0.2,1.7-0.2c0.6,0,1.1,0,1.6,0.1
		c0.4,0,0.7,0.1,1,0.2V28l-1.5,3.1h-0.3c-0.2-0.1-0.4-0.1-0.7-0.2c-0.2-0.1-0.5-0.1-0.8-0.1c-0.4,0-0.8,0.1-1.1,0.2V27.5z
		 M112.6,30.8l-0.2,0.5h0.2V30.8z M112.6,33.5h-1.2l-3.1,6.5v8.2l4.3-8.9V33.5z M112.6,46.8v2.5h-1.2L112.6,46.8z M106.1,33.5h2.2
		v1.8l-0.8,1.6h-2.9l-6,12.5h-4l6-12.5H99l1.6-3.4h1.7l0.2-0.4c0.9-1.9,2-3.4,3.1-4.4c0.8-0.6,1.7-1.1,2.7-1.3V31
		c-0.2,0.1-0.5,0.1-0.7,0.4C107.2,31.7,106.7,32.4,106.1,33.5L106.1,33.5z M108.3,40l-4.5,9.4h3.9l0.6-1.2V40z"/>
	<path class="st3" d="M2.9,3h71C61.8,8.7,49.2,16.4,42.7,25.1C31.5,39.4,35.8,50.1,41.8,55H2.9V3z"/>
	<path class="st4" d="M189,68.6v-0.8c0.3-0.1,0.6-0.3,0.8-0.6c0.3-0.3,0.5-0.6,0.7-0.9c0.2-0.3,0.3-0.7,0.5-1.1
		c0.1-0.5,0.1-0.8-0.1-1.1c-0.2-0.3-0.5-0.4-0.9-0.4c-0.3,0-0.7,0.1-1,0.3H189v-0.7c0.5-0.2,0.9-0.3,1.4-0.3c0.7,0,1.2,0.1,1.5,0.5
		c0.3,0.4,0.3,0.9,0.1,1.6c-0.1,0.5-0.3,1-0.7,1.5c-0.3,0.5-0.6,0.9-1,1.2C189.9,68.1,189.4,68.4,189,68.6L189,68.6z M189,63.2v0.7
		c-0.3,0.2-0.5,0.4-0.8,0.7c-0.3,0.3-0.5,0.5-0.7,0.9c-0.2,0.3-0.3,0.7-0.5,1.1c-0.1,0.5-0.1,0.8,0.1,1.1c0.1,0.3,0.5,0.3,0.9,0.3
		c0.3,0,0.6-0.1,0.9-0.2c0,0,0.1,0,0.1-0.1v0.8c-0.4,0.2-0.9,0.3-1.4,0.3c-0.7,0-1.2-0.2-1.4-0.5c-0.3-0.4-0.4-0.9-0.1-1.6
		c0.1-0.5,0.3-1,0.6-1.5c0.3-0.5,0.6-0.9,1-1.2C188,63.7,188.4,63.4,189,63.2L189,63.2z M167.2,68.7v-0.7c0.1-0.1,0.1-0.1,0.2-0.1
		c0.4-0.1,0.8-0.3,1.2-0.5h0.1l-0.6,1.1c-0.1,0.1-0.3,0.1-0.5,0.1C167.4,68.6,167.3,68.6,167.2,68.7 M167.2,66v-0.7h1.5
		c0.1-0.1,0.1-0.2,0.1-0.3c0-0.1,0.1-0.1,0.1-0.2c0.1-0.3,0.1-0.7-0.1-0.9c-0.1-0.2-0.5-0.3-0.9-0.3c-0.3,0-0.5,0-0.8,0.1v-0.7
		c0.3-0.1,0.8-0.1,1.2-0.1c0.7,0,1.1,0.1,1.4,0.5c0.3,0.3,0.3,0.7,0.1,1.3c0,0.1-0.1,0.3-0.1,0.5c-0.1,0.3-0.2,0.5-0.3,0.8H167.2z
		 M178.1,64.3c0,0.1-0.1,0.2-0.1,0.3c0,0.1-0.1,0.3-0.1,0.4l-1.9,3.7h-1l1.6-3.2c0.1-0.2,0.2-0.4,0.2-0.5c0.1-0.1,0.1-0.3,0.2-0.3
		c0.1-0.3,0.1-0.5-0.1-0.7c-0.1-0.1-0.3-0.2-0.8-0.2c-0.2,0-0.5,0.1-0.9,0.2c-0.3,0.1-0.8,0.3-1.1,0.5l-2.2,4.3h-1l3-5.7h1l-0.3,0.6
		c0.5-0.2,0.9-0.4,1.2-0.5c0.3-0.1,0.7-0.2,1-0.2c0.5,0,0.9,0.1,1.1,0.3C178.1,63.5,178.2,63.9,178.1,64.3 M185.3,63.1l-0.4,0.7h-2
		l-1.4,2.7c-0.1,0.1-0.1,0.3-0.2,0.5c-0.1,0.1-0.1,0.3-0.1,0.4c-0.1,0.2-0.1,0.4,0,0.5c0.1,0.1,0.3,0.2,0.7,0.2
		c0.1,0,0.3-0.1,0.5-0.1c0.2-0.1,0.3-0.1,0.4-0.1h0.1l-0.4,0.8c-0.2,0.1-0.5,0.1-0.7,0.1c-0.2,0-0.4,0.1-0.6,0.1
		c-0.5,0-0.8-0.1-1-0.3c-0.2-0.2-0.2-0.5-0.1-1c0-0.1,0.1-0.2,0.1-0.3c0.1-0.1,0.1-0.3,0.2-0.4l1.5-3.1h-0.6l0.4-0.7h0.6l0.8-1.7h1
		l-0.8,1.7H185.3z M167.2,63.1v0.7c-0.3,0.1-0.5,0.1-0.7,0.3c-0.5,0.3-0.8,0.7-1.1,1.1h1.8V66H165c-0.1,0.1-0.1,0.2-0.1,0.3
		c0,0.1-0.1,0.2-0.1,0.3c-0.1,0.5-0.1,0.9,0.1,1.1c0.2,0.3,0.6,0.4,1.2,0.4c0.3,0,0.6-0.1,1-0.1v0.7c-0.1,0-0.1,0-0.2,0.1
		c-0.2,0-0.4,0.1-0.6,0.1c-0.2,0.1-0.4,0.1-0.7,0.1c-0.7,0-1.4-0.2-1.7-0.5c-0.3-0.4-0.5-0.9-0.3-1.7c0.3-1,0.9-1.9,1.8-2.7
		C166.1,63.6,166.6,63.3,167.2,63.1 M141.8,68.5v-0.6v-0.1c0.3-0.1,0.6-0.3,1-0.5l0.8-1.6c-0.5,0-1,0.1-1.4,0.1
		c-0.1,0-0.2,0.1-0.3,0.1v-0.7c0.1,0,0.2-0.1,0.2-0.1c0.6-0.1,1.2-0.1,2-0.1c0-0.1,0.1-0.2,0.1-0.3c0.1-0.1,0.1-0.1,0.1-0.2v-0.4
		c-0.1-0.1-0.1-0.2-0.2-0.3c-0.1-0.1-0.3-0.1-0.4-0.1H143c-0.3,0-0.6,0.1-1,0.1c-0.1,0-0.1,0.1-0.2,0.1v-0.8
		c0.1-0.1,0.3-0.1,0.5-0.1c0.4-0.1,0.7-0.1,1.1-0.1c0.8,0,1.2,0.1,1.6,0.3c0.3,0.2,0.3,0.5,0.2,1c0,0.1-0.1,0.2-0.1,0.3
		c-0.1,0.1-0.1,0.2-0.1,0.3l-2,3.9h-1l0.3-0.6c-0.1,0.1-0.3,0.1-0.3,0.2C141.9,68.4,141.8,68.4,141.8,68.5 M157.2,64.3
		c0,0.1-0.1,0.2-0.1,0.3c0,0.1-0.1,0.3-0.1,0.4l-1.9,3.7h-1l1.6-3.2c0.1-0.2,0.2-0.4,0.3-0.5c0.1-0.1,0.1-0.3,0.1-0.4
		c0.1-0.3,0.1-0.5-0.1-0.6c-0.1-0.1-0.3-0.2-0.7-0.2c-0.3,0-0.6,0.1-0.9,0.2c-0.3,0.1-0.8,0.3-1.1,0.5c0,0.1-0.1,0.2-0.1,0.3
		c0,0.1-0.1,0.2-0.1,0.3l-1.9,3.6h-1l1.6-3.2c0.1-0.3,0.2-0.4,0.3-0.5c0.1-0.1,0.1-0.3,0.1-0.4c0.1-0.3,0.1-0.5-0.1-0.7
		c-0.1-0.1-0.3-0.1-0.7-0.1c-0.2,0-0.4,0-0.8,0.1c-0.3,0.1-0.6,0.3-1.2,0.5l-2.2,4.3h-1l2.9-5.7h1l-0.3,0.6c0.5-0.2,0.8-0.4,1.2-0.5
		c0.3-0.1,0.7-0.2,1.1-0.2c0.4,0,0.7,0.1,0.9,0.2c0.1,0.2,0.3,0.4,0.3,0.7c0.6-0.3,1-0.5,1.4-0.7c0.4-0.1,0.7-0.2,1.1-0.2
		c0.5,0,0.9,0.1,1.1,0.3C157.3,63.5,157.3,63.9,157.2,64.3 M163.5,61.1l-0.6,1h-1.1l0.5-1H163.5z M162.4,63.1l-2.9,5.7h-1l2.9-5.7
		H162.4z M141.8,63.1v0.8c-0.3,0.1-0.6,0.1-0.8,0.2l0.4-0.9C141.5,63.2,141.6,63.1,141.8,63.1 M141.8,65.2v0.7
		c-0.3,0.1-0.5,0.1-0.7,0.2c-0.3,0.1-0.6,0.3-0.7,0.5c-0.2,0.1-0.3,0.4-0.5,0.7c-0.1,0.3,0,0.5,0.1,0.6c0.1,0.1,0.4,0.2,0.8,0.2
		c0.3,0,0.6-0.1,1-0.2v0.6c-0.1,0.1-0.3,0.1-0.4,0.1c-0.1,0.1-0.4,0.1-0.6,0.2c-0.2,0.1-0.5,0.1-0.8,0.1c-0.5,0-0.8-0.1-1-0.4
		c-0.2-0.3-0.3-0.6-0.1-1c0.1-0.5,0.3-0.8,0.6-1.1c0.3-0.3,0.6-0.6,1.1-0.7C140.9,65.4,141.3,65.3,141.8,65.2 M113.6,68.5v-0.6v-0.1
		c0.3-0.1,0.7-0.3,1.1-0.5l0.8-1.6c-0.5,0-1,0.1-1.5,0.1c-0.1,0-0.3,0.1-0.4,0.1v-0.7c0.1,0,0.2-0.1,0.3-0.1
		c0.5-0.1,1.2-0.1,1.9-0.1c0.1-0.1,0.1-0.2,0.1-0.3c0-0.1,0.1-0.1,0.1-0.2c0.1-0.2,0.1-0.3,0-0.4c0-0.1-0.1-0.2-0.2-0.3
		c-0.1-0.1-0.2-0.1-0.4-0.1H115c-0.3,0-0.7,0.1-1.1,0.1c-0.1,0-0.2,0.1-0.3,0.1v-0.8c0.2-0.1,0.4-0.1,0.6-0.1
		c0.4-0.1,0.8-0.1,1.2-0.1c0.7,0,1.2,0.1,1.5,0.3c0.3,0.2,0.4,0.5,0.3,1c-0.1,0.1-0.1,0.2-0.1,0.3c0,0.1-0.1,0.2-0.1,0.3l-2,3.9h-1
		l0.3-0.6c-0.1,0.1-0.3,0.1-0.5,0.2C113.7,68.4,113.7,68.4,113.6,68.5 M125.4,64.3c0,0.1-0.1,0.2-0.1,0.3c-0.1,0.1-0.1,0.3-0.2,0.4
		l-1.8,3.7h-1l1.7-3.2c0.1-0.2,0.1-0.4,0.2-0.5c0.1-0.1,0.1-0.3,0.2-0.3c0.1-0.3,0.1-0.5-0.1-0.7c-0.1-0.1-0.3-0.2-0.7-0.2
		c-0.3,0-0.6,0.1-1,0.2c-0.3,0.1-0.7,0.3-1,0.5l-2.2,4.3h-1l2.9-5.7h1l-0.3,0.6c0.4-0.2,0.8-0.4,1.2-0.5c0.4-0.1,0.8-0.2,1.1-0.2
		c0.5,0,0.8,0.1,1.1,0.3C125.6,63.5,125.6,63.9,125.4,64.3 M129.3,68.9c-0.3,0-0.7-0.1-1-0.1c-0.2-0.1-0.5-0.2-0.6-0.4
		c-0.1-0.2-0.3-0.4-0.3-0.7c-0.1-0.3,0-0.6,0.1-0.9c0.1-0.5,0.4-1,0.7-1.5c0.3-0.5,0.6-0.9,1-1.3c0.4-0.3,0.9-0.6,1.4-0.8
		c0.5-0.2,1-0.3,1.5-0.3c0.3,0,0.7,0.1,1,0.1c0.3,0.1,0.5,0.2,0.7,0.3l-0.5,1h-0.1c-0.1-0.1-0.1-0.1-0.2-0.2
		c-0.1-0.1-0.2-0.1-0.3-0.2c-0.1-0.1-0.2-0.1-0.4-0.2c-0.1-0.1-0.3-0.1-0.5-0.1c-0.7,0-1.3,0.3-1.9,0.8c-0.5,0.6-1,1.3-1.2,2.1
		c-0.1,0.5-0.1,0.8,0.1,1.1c0.2,0.3,0.5,0.4,1,0.4c0.2,0,0.5,0,0.7-0.1c0.3-0.1,0.5-0.1,0.6-0.2c0.2-0.1,0.4-0.2,0.5-0.3
		c0.2-0.1,0.3-0.1,0.3-0.2h0.1l-0.5,1.1c-0.4,0.1-0.7,0.2-1,0.3C130,68.8,129.6,68.9,129.3,68.9 M138.9,61.1l-0.5,1h-1.2l0.5-1
		H138.9z M137.9,63.1l-2.9,5.7h-1l2.9-5.7H137.9z M113.6,63.1v0.8c-0.3,0.1-0.5,0.1-0.7,0.2h-0.1l0.5-0.9
		C113.4,63.2,113.5,63.1,113.6,63.1 M113.6,65.2v0.7c-0.3,0.1-0.5,0.1-0.7,0.2c-0.3,0.1-0.5,0.3-0.8,0.5c-0.2,0.1-0.3,0.4-0.4,0.7
		c-0.1,0.3-0.1,0.5,0.1,0.6c0.1,0.1,0.4,0.2,0.7,0.2c0.3,0,0.7-0.1,1-0.2v0.6c-0.1,0.1-0.2,0.1-0.3,0.1c-0.2,0.1-0.4,0.1-0.7,0.2
		c-0.2,0.1-0.5,0.1-0.7,0.1c-0.5,0-0.8-0.1-1-0.4c-0.2-0.3-0.3-0.6-0.1-1c0.1-0.5,0.3-0.8,0.6-1.1c0.3-0.3,0.7-0.6,1.1-0.7
		C112.8,65.4,113.2,65.3,113.6,65.2 M98.3,68.7v-1.7l2.1-4h1l-3,5.7H98.3z M98.3,61.6v-0.8h0.4c0.2,0,0.3,0.1,0.5,0.1l-0.4,0.9h-0.1
		C98.7,61.7,98.5,61.7,98.3,61.6L98.3,61.6z M102.4,61.1l-0.5,1h-1.1l0.5-1H102.4z M109.1,64.3c0,0.1-0.1,0.2-0.1,0.3
		c-0.1,0.1-0.1,0.3-0.1,0.4l-1.9,3.7h-1l1.6-3.2c0.1-0.2,0.1-0.4,0.2-0.5c0.1-0.1,0.1-0.3,0.1-0.3c0.1-0.3,0.1-0.5,0-0.7
		c-0.1-0.1-0.3-0.2-0.8-0.2c-0.3,0-0.5,0.1-0.9,0.2c-0.3,0.1-0.8,0.3-1.1,0.5l-2.2,4.3h-1l2.9-5.7h1l-0.3,0.6
		c0.5-0.2,0.8-0.4,1.2-0.5c0.3-0.1,0.7-0.2,1-0.2c0.5,0,0.9,0.1,1.1,0.3C109.1,63.5,109.2,63.9,109.1,64.3 M98.3,60.8v0.8h-0.4
		c-0.4,0-0.8,0.1-1,0.3c-0.3,0.3-0.6,0.5-0.8,1L96,63.1h1.8l-0.4,0.7h-1.7l-2.5,4.9h-1l2.5-4.9H94l0.4-0.7H95l0.1-0.2
		c0.3-0.7,0.8-1.2,1.2-1.5c0.6-0.4,1.1-0.5,1.8-0.5H98.3z M98.3,67.1l-0.8,1.7h0.8V67.1z M82.4,68.7v-0.7c0.1-0.1,0.1-0.1,0.2-0.1
		c0.4-0.1,0.8-0.3,1.2-0.5l-0.5,1.1c-0.2,0.1-0.3,0.1-0.5,0.1C82.6,68.6,82.5,68.6,82.4,68.7 M82.4,66v-0.7h1.5
		c0.1-0.1,0.1-0.2,0.1-0.3c0-0.1,0.1-0.1,0.1-0.2c0.1-0.3,0.1-0.7-0.1-0.9c-0.1-0.2-0.5-0.3-0.9-0.3c-0.3,0-0.6,0-0.8,0.1v-0.7
		c0.3-0.1,0.8-0.1,1.2-0.1c0.6,0,1.1,0.1,1.4,0.5c0.3,0.3,0.3,0.7,0.1,1.3c0,0.1-0.1,0.3-0.1,0.5c-0.1,0.3-0.2,0.5-0.4,0.8H82.4z
		 M82.4,63.1v0.7c-0.3,0.1-0.5,0.1-0.7,0.3c-0.5,0.3-0.8,0.7-1.1,1.1h1.8V66h-2.1c-0.1,0.1-0.1,0.2-0.1,0.3C80,66.3,80,66.5,80,66.5
		c-0.1,0.5-0.1,0.9,0.1,1.1c0.2,0.3,0.6,0.4,1.2,0.4c0.3,0,0.6-0.1,1-0.1v0.7c-0.1,0-0.1,0-0.2,0.1c-0.2,0-0.4,0.1-0.6,0.1
		c-0.1,0.1-0.4,0.1-0.6,0.1c-0.8,0-1.4-0.2-1.7-0.5c-0.4-0.4-0.5-0.9-0.3-1.7c0.3-1,0.9-1.9,1.8-2.7C81.2,63.6,81.7,63.3,82.4,63.1
		 M73.9,68.7v-0.3l0.1-0.3c-0.1,0.1-0.1,0.1-0.1,0.1v-0.6c0.2-0.1,0.3-0.1,0.5-0.3l1.6-3.3c-0.2-0.1-0.4-0.2-0.6-0.3
		c-0.2-0.1-0.4-0.1-0.7-0.1c-0.3,0-0.6,0.1-0.9,0.2v-0.8c0.3-0.1,0.8-0.2,1.2-0.2c0.3,0,0.5,0,0.8,0.1c0.2,0.1,0.5,0.1,0.6,0.3
		l1.3-2.5h1l-4,8H73.9z M73.9,63.1v0.8c-0.1,0-0.1,0.1-0.1,0.1c-0.3,0.1-0.6,0.4-0.9,0.7c-0.3,0.3-0.5,0.6-0.7,1
		c-0.2,0.3-0.4,0.7-0.5,1.1c-0.1,0.4-0.1,0.7,0,0.9c0.1,0.3,0.4,0.3,0.8,0.3c0.3,0,0.6-0.1,1-0.2c0.1-0.1,0.3-0.1,0.4-0.2v0.6
		c-0.5,0.3-0.8,0.5-1.1,0.5c-0.3,0.1-0.6,0.1-0.9,0.1c-0.5,0-0.9-0.1-1.2-0.5c-0.2-0.3-0.2-0.9-0.1-1.5c0.2-0.6,0.4-1.1,0.7-1.6
		c0.3-0.5,0.7-0.9,1.1-1.3c0.4-0.3,0.8-0.7,1.3-0.9C73.7,63.2,73.8,63.1,73.9,63.1 M73.9,68.5l-0.2,0.3h0.2V68.5z M59.2,68.5v-0.6
		v-0.1c0.3-0.1,0.8-0.3,1.1-0.5l0.8-1.6c-0.5,0-1,0.1-1.5,0.1c-0.1,0-0.3,0.1-0.4,0.1v-0.7c0.1,0,0.2-0.1,0.3-0.1
		c0.6-0.1,1.2-0.1,1.9-0.1c0.1-0.1,0.1-0.2,0.1-0.3c0-0.1,0.1-0.1,0.1-0.2c0.1-0.2,0.1-0.3,0-0.4c0-0.1-0.1-0.2-0.2-0.3
		c-0.1-0.1-0.2-0.1-0.4-0.1h-0.5c-0.3,0-0.7,0.1-1.1,0.1c-0.1,0-0.2,0.1-0.3,0.1v-0.8c0.2-0.1,0.4-0.1,0.6-0.1
		c0.4-0.1,0.7-0.1,1.2-0.1c0.7,0,1.2,0.1,1.5,0.3c0.3,0.2,0.4,0.5,0.3,1c-0.1,0.1-0.1,0.2-0.1,0.3c0,0.1-0.1,0.2-0.1,0.3l-2,3.9h-1
		l0.3-0.6c-0.1,0.1-0.3,0.1-0.5,0.2C59.3,68.4,59.3,68.4,59.2,68.5 M59.2,63.1v0.8c-0.3,0.1-0.5,0.1-0.7,0.2h-0.1l0.5-0.9
		C59,63.2,59.1,63.1,59.2,63.1 M59.2,65.2v0.7c-0.3,0.1-0.5,0.1-0.7,0.2c-0.3,0.1-0.6,0.3-0.8,0.5c-0.2,0.1-0.3,0.4-0.4,0.7
		c-0.1,0.3-0.1,0.5,0.1,0.6c0.1,0.1,0.4,0.2,0.7,0.2c0.3,0,0.7-0.1,1-0.2v0.6c-0.1,0.1-0.2,0.1-0.3,0.1c-0.2,0.1-0.4,0.1-0.7,0.2
		c-0.2,0.1-0.5,0.1-0.7,0.1c-0.5,0-0.8-0.1-1-0.4c-0.2-0.3-0.3-0.6-0.1-1c0.1-0.5,0.3-0.8,0.6-1.1c0.3-0.3,0.7-0.6,1.1-0.7
		C58.4,65.4,58.8,65.3,59.2,65.2 M38.2,68.5v-0.6v-0.1c0.4-0.1,0.8-0.3,1.1-0.5l0.8-1.6c-0.6,0-1,0.1-1.5,0.1
		c-0.1,0-0.3,0.1-0.4,0.1v-0.7c0.1,0,0.2-0.1,0.3-0.1c0.5-0.1,1.2-0.1,1.9-0.1c0.1-0.1,0.1-0.2,0.1-0.3c0.1-0.1,0.1-0.1,0.1-0.2
		c0.1-0.2,0.1-0.3,0-0.4c0-0.1-0.1-0.2-0.2-0.3c-0.1-0.1-0.2-0.1-0.3-0.1h-0.6c-0.3,0-0.7,0.1-1,0.1c-0.1,0-0.2,0.1-0.3,0.1v-0.8
		c0.2-0.1,0.4-0.1,0.6-0.1c0.4-0.1,0.8-0.1,1.2-0.1c0.7,0,1.2,0.1,1.5,0.3c0.3,0.2,0.4,0.5,0.3,1c0,0.1-0.1,0.2-0.1,0.3
		c0,0.1-0.1,0.2-0.1,0.3l-1.9,3.9h-1l0.3-0.6c-0.1,0.1-0.3,0.1-0.5,0.2C38.4,68.4,38.3,68.4,38.2,68.5 M50.1,64.3
		c-0.1,0.1-0.1,0.2-0.1,0.3c-0.1,0.1-0.1,0.3-0.2,0.4L48,68.7h-1l1.6-3.2c0.1-0.2,0.1-0.4,0.2-0.5c0.1-0.1,0.1-0.3,0.1-0.3
		c0.1-0.3,0.1-0.5,0-0.7c-0.1-0.1-0.3-0.2-0.8-0.2c-0.3,0-0.5,0.1-1,0.2c-0.3,0.1-0.7,0.3-1,0.5l-2.2,4.3h-1l2.9-5.7h1l-0.3,0.6
		c0.4-0.2,0.8-0.4,1.2-0.5c0.4-0.1,0.8-0.2,1.1-0.2c0.5,0,0.9,0.1,1.1,0.3C50.2,63.5,50.2,63.9,50.1,64.3 M51.5,60.5
		c-0.3,0.5-0.6,0.9-0.9,1.1c-0.3,0.3-0.7,0.4-1,0.4c-0.2,0-0.3,0-0.5-0.1c-0.1-0.1-0.2-0.2-0.3-0.3c-0.1-0.1-0.1-0.2-0.2-0.3
		c-0.1-0.1-0.2-0.1-0.3-0.1c-0.1,0-0.3,0.1-0.4,0.2c-0.1,0.1-0.3,0.3-0.5,0.6h-0.6c0.3-0.5,0.6-0.9,0.9-1.1c0.3-0.3,0.7-0.4,1-0.4
		c0.1,0,0.3,0.1,0.5,0.1c0.1,0.1,0.2,0.1,0.3,0.3c0.1,0.1,0.1,0.2,0.3,0.3c0.1,0.1,0.1,0.1,0.3,0.1c0.2,0,0.3-0.1,0.5-0.2
		c0.1-0.2,0.3-0.4,0.4-0.6H51.5z M57.1,60.6l-1.2,1.5h-1.1l1.2-1.5H57.1z M55.4,63.1l-2.9,5.7h-1l2.9-5.7H55.4z M38.2,63.1v0.8
		c-0.3,0.1-0.5,0.1-0.7,0.2h-0.1l0.5-0.9C38,63.2,38.2,63.1,38.2,63.1 M38.2,65.2v0.7c-0.2,0.1-0.5,0.1-0.7,0.2
		c-0.3,0.1-0.5,0.3-0.7,0.5c-0.2,0.1-0.3,0.4-0.4,0.7c-0.1,0.3,0,0.5,0.1,0.6c0.1,0.1,0.4,0.2,0.7,0.2c0.3,0,0.7-0.1,1-0.2v0.6
		c-0.1,0.1-0.2,0.1-0.3,0.1c-0.2,0.1-0.4,0.1-0.6,0.2c-0.3,0.1-0.5,0.1-0.8,0.1c-0.5,0-0.8-0.1-1-0.4c-0.2-0.3-0.2-0.6-0.1-1
		c0.1-0.5,0.3-0.8,0.6-1.1c0.3-0.3,0.7-0.6,1.2-0.7C37.4,65.4,37.8,65.3,38.2,65.2 M30.6,68.6v-0.8c0,0,0.1,0,0.1-0.1
		c0.3-0.1,0.6-0.3,0.9-0.6c0.3-0.3,0.5-0.6,0.7-1c0.2-0.3,0.3-0.7,0.5-1.1c0.1-0.5,0.1-0.7,0-0.9c-0.1-0.3-0.4-0.3-0.8-0.3
		c-0.3,0-0.6,0.1-1,0.2c-0.1,0.1-0.3,0.1-0.4,0.1v-0.6c0.3-0.1,0.6-0.3,0.9-0.4c0.3-0.1,0.8-0.2,1.1-0.2c0.6,0,1,0.1,1.2,0.5
		c0.2,0.3,0.2,0.9,0.1,1.5c-0.1,0.5-0.4,1.1-0.7,1.6c-0.3,0.5-0.6,0.9-1,1.2c-0.4,0.4-0.8,0.7-1.3,0.9
		C30.6,68.5,30.6,68.6,30.6,68.6 M30.6,63.3l0.1-0.3h-0.1V63.3z M30.6,63.1v0.3l-0.2,0.3c0.1-0.1,0.1-0.1,0.2-0.1v0.6
		c-0.2,0.1-0.4,0.2-0.6,0.3l-1.6,3.2c0.2,0.1,0.4,0.2,0.5,0.3C29,68,29.3,68,29.6,68c0.3,0,0.6-0.1,1-0.2v0.8
		c-0.4,0.2-0.8,0.3-1.2,0.3c-0.3,0-0.6-0.1-0.9-0.1c-0.2-0.1-0.4-0.1-0.6-0.3l-1.2,2.3h-1l4-7.7H30.6z M10.4,68.6v-0.8
		c0.3-0.1,0.5-0.3,0.8-0.6c0.3-0.3,0.5-0.6,0.7-0.9c0.2-0.3,0.3-0.7,0.4-1.1c0.1-0.5,0.1-0.8,0-1.1c-0.2-0.3-0.5-0.4-0.9-0.4
		c-0.3,0-0.7,0.1-1,0.3h-0.1v-0.7c0.4-0.2,0.9-0.3,1.4-0.3c0.7,0,1.2,0.1,1.4,0.5c0.3,0.4,0.3,0.9,0.2,1.6c-0.1,0.5-0.4,1-0.7,1.5
		c-0.3,0.5-0.6,0.9-1,1.2C11.4,68.1,10.9,68.4,10.4,68.6L10.4,68.6z M25.5,64.3c-0.1,0.1-0.1,0.2-0.1,0.3c-0.1,0.1-0.1,0.3-0.2,0.4
		l-1.9,3.7h-1l1.6-3.2c0.1-0.2,0.2-0.4,0.3-0.5c0.1-0.1,0.1-0.3,0.1-0.4c0.1-0.3,0.1-0.5,0-0.6c-0.1-0.1-0.3-0.2-0.7-0.2
		c-0.3,0-0.6,0.1-1,0.2c-0.3,0.1-0.7,0.3-1,0.5c-0.1,0.1-0.1,0.2-0.1,0.3c-0.1,0.1-0.1,0.2-0.1,0.3l-1.8,3.6h-1l1.7-3.2
		c0.1-0.3,0.1-0.4,0.2-0.5c0.1-0.1,0.1-0.3,0.2-0.4c0.1-0.3,0-0.5-0.1-0.7c-0.1-0.1-0.3-0.1-0.6-0.1c-0.2,0-0.5,0-0.8,0.1
		c-0.3,0.1-0.7,0.3-1.2,0.5l-2.2,4.3h-1l2.9-5.7h1l-0.3,0.6c0.4-0.2,0.8-0.4,1.2-0.5c0.3-0.1,0.7-0.2,1-0.2c0.4,0,0.7,0.1,0.9,0.2
		c0.2,0.2,0.3,0.4,0.3,0.7c0.5-0.3,1-0.5,1.4-0.7c0.4-0.1,0.8-0.2,1.2-0.2c0.5,0,0.8,0.1,1,0.3C25.6,63.5,25.6,63.9,25.5,64.3
		 M2,68.9c-0.4,0-0.7-0.1-1-0.1c-0.3-0.1-0.5-0.2-0.6-0.4c-0.2-0.2-0.3-0.4-0.3-0.7c-0.1-0.3-0.1-0.6,0.1-0.9c0.1-0.5,0.3-1,0.7-1.5
		c0.3-0.5,0.6-0.9,1-1.3c0.4-0.3,0.8-0.6,1.4-0.8c0.5-0.2,1-0.3,1.5-0.3c0.3,0,0.6,0.1,0.9,0.1c0.3,0.1,0.6,0.2,0.8,0.3l-0.5,1
		c-0.1-0.1-0.1-0.1-0.2-0.2c-0.1-0.1-0.2-0.1-0.3-0.2c-0.1-0.1-0.3-0.1-0.4-0.2c-0.1-0.1-0.3-0.1-0.6-0.1c-0.7,0-1.3,0.3-1.9,0.8
		c-0.6,0.6-1,1.3-1.2,2.1c-0.1,0.5-0.1,0.8,0.1,1.1c0.1,0.3,0.5,0.4,1,0.4c0.2,0,0.4,0,0.7-0.1c0.2-0.1,0.4-0.1,0.6-0.2
		c0.2-0.1,0.3-0.2,0.6-0.3c0.1-0.1,0.3-0.1,0.3-0.2h0.1l-0.5,1.1c-0.3,0.1-0.7,0.2-1.1,0.3C2.7,68.8,2.3,68.9,2,68.9 M10.4,63.2v0.7
		c-0.3,0.2-0.5,0.4-0.8,0.7c-0.3,0.3-0.5,0.5-0.7,0.9c-0.2,0.3-0.3,0.7-0.5,1.1c-0.1,0.5-0.1,0.8,0.1,1.1c0.1,0.3,0.4,0.3,0.9,0.3
		c0.3,0,0.6-0.1,1-0.2l0.1-0.1v0.8c-0.5,0.2-0.9,0.3-1.4,0.3c-0.7,0-1.2-0.2-1.4-0.5c-0.3-0.4-0.3-0.9-0.1-1.6
		c0.1-0.5,0.3-1,0.6-1.5c0.3-0.5,0.6-0.9,1-1.2C9.5,63.7,9.9,63.4,10.4,63.2L10.4,63.2z"/>
	<path class="st4" d="M216.8,68.5v-0.6l0.1-0.1c0.3-0.1,0.7-0.3,1-0.5l0.8-1.6c-0.5,0-1,0.1-1.4,0.1c-0.1,0-0.3,0.1-0.5,0.1v-0.7
		c0.1,0,0.3-0.1,0.3-0.1c0.6-0.1,1.2-0.1,2-0.1c0-0.1,0.1-0.2,0.1-0.3c0.1-0.1,0.1-0.1,0.1-0.2v-0.4c-0.1-0.1-0.1-0.2-0.2-0.3
		c-0.1-0.1-0.3-0.1-0.4-0.1h-0.5c-0.3,0-0.6,0.1-1,0.1c-0.1,0-0.2,0.1-0.3,0.1v-0.8c0.2-0.1,0.4-0.1,0.7-0.1
		c0.3-0.1,0.8-0.1,1.1-0.1c0.7,0,1.2,0.1,1.5,0.3c0.3,0.2,0.4,0.5,0.3,1c0,0.1-0.1,0.2-0.1,0.3c-0.1,0.1-0.1,0.2-0.1,0.3l-2,3.9h-1
		l0.3-0.6c-0.1,0.1-0.3,0.1-0.4,0.2C217,68.4,216.9,68.4,216.8,68.5 M223.2,68.7H222l0.7-1.5h1.2L223.2,68.7z M216.8,63.1v0.8
		c-0.3,0.1-0.5,0.1-0.7,0.2H216l0.5-0.9C216.5,63.2,216.7,63.1,216.8,63.1 M216.8,65.2v0.7c-0.2,0.1-0.4,0.1-0.6,0.2
		c-0.3,0.1-0.6,0.3-0.8,0.5c-0.1,0.1-0.3,0.4-0.4,0.7c-0.1,0.3,0,0.5,0.1,0.6c0.1,0.1,0.3,0.2,0.8,0.2c0.3,0,0.6-0.1,1-0.2v0.6
		c-0.1,0.1-0.2,0.1-0.3,0.1c-0.2,0.1-0.4,0.1-0.6,0.2c-0.3,0.1-0.5,0.1-0.8,0.1c-0.5,0-0.8-0.1-1-0.4c-0.2-0.3-0.3-0.6-0.2-1
		c0.1-0.5,0.3-0.8,0.7-1.1c0.3-0.3,0.6-0.6,1.1-0.7C215.9,65.4,216.3,65.3,216.8,65.2 M202.7,68.9c-0.5,0-0.8-0.1-1.2-0.1
		c-0.3-0.1-0.6-0.3-0.8-0.3l0.5-1.1h0.1c0.1,0.1,0.1,0.1,0.2,0.3c0.1,0.1,0.3,0.1,0.4,0.2c0.1,0.1,0.3,0.1,0.5,0.2
		c0.2,0.1,0.4,0.1,0.7,0.1c0.5,0,0.9-0.1,1.2-0.3c0.3-0.1,0.5-0.4,0.6-0.7c0.1-0.2,0-0.3-0.1-0.4c-0.1-0.1-0.3-0.2-0.5-0.3
		c-0.1,0-0.3-0.1-0.5-0.1c-0.2-0.1-0.3-0.1-0.5-0.1c-0.4-0.1-0.6-0.3-0.8-0.5c-0.1-0.2-0.2-0.5-0.1-0.7c0.1-0.3,0.1-0.5,0.3-0.7
		c0.2-0.3,0.4-0.5,0.7-0.7c0.3-0.2,0.6-0.3,1-0.5c0.3-0.1,0.8-0.1,1.2-0.1c0.3,0,0.7,0,1,0.1c0.3,0.1,0.5,0.2,0.7,0.3l-0.5,1H207
		c-0.1-0.1-0.1-0.1-0.2-0.2c-0.1-0.1-0.2-0.1-0.3-0.2c-0.1-0.1-0.3-0.1-0.5-0.2c-0.2,0-0.4-0.1-0.6-0.1c-0.4,0-0.8,0.1-1.2,0.3
		c-0.3,0.2-0.5,0.5-0.5,0.7c-0.1,0.2-0.1,0.3,0.1,0.5c0.1,0.1,0.3,0.2,0.5,0.3c0.2,0,0.3,0.1,0.5,0.1c0.1,0.1,0.3,0.1,0.5,0.1
		c0.4,0.1,0.7,0.3,0.8,0.5c0.1,0.2,0.1,0.5,0.1,0.8c-0.1,0.3-0.2,0.5-0.4,0.7c-0.2,0.3-0.4,0.5-0.8,0.7c-0.3,0.2-0.6,0.3-1,0.5
		C203.5,68.8,203.1,68.9,202.7,68.9 M209.7,68.7h-1.3l0.8-1.5h1.3L209.7,68.7z"/>
</g>
</svg>
