<?xml version="1.0" encoding="utf-8"?>
<!-- Generator: Adobe Illustrator 26.0.1, SVG Export Plug-In . SVG Version: 6.00 Build 0)  -->
<svg version="1.1" id="Capa_1" xmlns="http://www.w3.org/2000/svg" xmlns:xlink="http://www.w3.org/1999/xlink" x="0px" y="0px"
	 viewBox="0 0 7.9 91.3" style="enable-background:new 0 0 7.9 91.3;" xml:space="preserve">
<style type="text/css">
	.st0{fill:#222220;}
	.st1{fill-rule:evenodd;clip-rule:evenodd;fill:#222220;}
</style>
<g>
	<rect y="62.4" class="st0" width="0.8" height="28.9"/>
	<rect x="7.1" y="62.4" class="st0" width="0.8" height="28.9"/>
	<path class="st0" d="M2.9,86.5l2.9,1.2v0.9l-2.9,1.2v-0.9l2.1-0.8l-2.1-0.8V86.5 M5.8,84.2v1.9H5.3v-0.5H3.4v0.5H2.9v-1.9h0.5v0.5
		h1.9v-0.5H5.8z M5.6,80.7c0,0.1,0.1,0.3,0.1,0.6c0.1,0.2,0.1,0.5,0.1,0.7c0,0.6-0.1,1-0.4,1.3c-0.3,0.3-0.7,0.5-1.1,0.5
		c-0.5,0-0.8-0.2-1.1-0.5c-0.3-0.3-0.4-0.8-0.4-1.3c0-0.2,0-0.4,0.1-0.6c0-0.2,0.1-0.4,0.2-0.6h0.7v0.1c0,0-0.1,0.1-0.1,0.2
		c-0.1,0.1-0.1,0.1-0.1,0.2c0,0.1-0.1,0.2-0.1,0.3c0,0.1,0,0.2,0,0.4c0,0.1,0,0.3,0.1,0.4c0,0.1,0.1,0.2,0.2,0.3
		c0.1,0.1,0.2,0.2,0.3,0.2c0.1,0,0.3,0.1,0.4,0.1c0.3,0,0.6-0.1,0.7-0.3c0.2-0.2,0.3-0.5,0.3-0.9c0,0,0-0.1,0-0.1c0,0,0-0.1,0-0.1
		H4.7v0.7H4.2v-1.5H5.6z M5.8,78.1V80H5.3v-0.5H3.4V80H2.9v-1.9h0.5v0.5h1.9v-0.5H5.8z M5.8,75.1v2.4H2.9v-0.8h2.4v-1.5H5.8z
		 M5.8,71.5v0.9l-0.6,0.2v1.2l0.6,0.2v0.9l-2.9-1.2v-1L5.8,71.5z M4.7,72.8l-1.1,0.4l1.1,0.4V72.8z M4.3,68c0.3,0,0.5,0.1,0.7,0.2
		c0.2,0.1,0.4,0.3,0.5,0.5c0.1,0.2,0.1,0.3,0.2,0.5c0,0.2,0.1,0.4,0.1,0.7v1.2H2.9v-1.2c0-0.3,0-0.5,0.1-0.7C3,69,3,68.8,3.1,68.7
		c0.1-0.2,0.3-0.4,0.5-0.5C3.8,68,4,68,4.3,68 M4.3,68.8c-0.2,0-0.4,0-0.5,0.1c-0.1,0.1-0.2,0.2-0.3,0.4c0,0.1-0.1,0.2-0.1,0.3
		c0,0.1,0,0.2,0,0.4v0.2h1.8V70c0-0.2,0-0.3,0-0.4c0-0.1,0-0.2-0.1-0.3C5.1,69.1,5,69,4.8,68.9C4.7,68.9,4.5,68.8,4.3,68.8
		 M4.3,64.1c0.5,0,0.8,0.1,1.1,0.5c0.3,0.3,0.4,0.7,0.4,1.2c0,0.5-0.1,0.9-0.4,1.2c-0.3,0.3-0.6,0.5-1.1,0.5c-0.5,0-0.8-0.2-1.1-0.5
		c-0.3-0.3-0.4-0.7-0.4-1.2c0-0.5,0.1-0.9,0.4-1.2C3.5,64.3,3.9,64.1,4.3,64.1 M5.1,65.3c-0.1-0.1-0.2-0.1-0.3-0.2
		C4.6,65,4.5,65,4.3,65c-0.2,0-0.3,0-0.4,0.1c-0.1,0-0.2,0.1-0.3,0.2c-0.1,0.1-0.1,0.2-0.2,0.3c0,0.1,0,0.2,0,0.3c0,0.1,0,0.2,0,0.3
		c0,0.1,0.1,0.2,0.2,0.3c0.1,0.1,0.2,0.1,0.3,0.2c0.1,0,0.3,0.1,0.5,0.1c0.2,0,0.3,0,0.4-0.1c0.1,0,0.2-0.1,0.3-0.2
		c0.1-0.1,0.1-0.2,0.2-0.3c0-0.1,0.1-0.2,0.1-0.3c0-0.1,0-0.2-0.1-0.3C5.2,65.4,5.2,65.3,5.1,65.3"/>
	<path class="st0" d="M2.9,58.1c0.1,0,0.2,0,0.3,0.1c0.1,0,0.2,0.1,0.2,0.2c0.1,0.1,0.1,0.2,0.2,0.3c0,0.1,0.1,0.3,0.1,0.4
		c0,0.2,0,0.3-0.1,0.5c0,0.1-0.1,0.3-0.2,0.4H3.1v0c0.1-0.1,0.2-0.3,0.2-0.4c0.1-0.2,0.1-0.3,0.1-0.5c0-0.2,0-0.4-0.1-0.5
		c-0.1-0.1-0.2-0.2-0.3-0.2c-0.1,0-0.2,0-0.3,0.1c0,0.1-0.1,0.1-0.1,0.2c0,0.1,0,0.2-0.1,0.3c0,0.1,0,0.2-0.1,0.3
		c0,0.2-0.1,0.4-0.2,0.5C2.1,60,2,60,1.8,60c-0.2,0-0.4-0.1-0.5-0.3c-0.1-0.2-0.2-0.4-0.2-0.7c0-0.2,0-0.3,0.1-0.5
		c0-0.1,0.1-0.3,0.1-0.4h0.4v0c-0.1,0.1-0.1,0.2-0.2,0.4c-0.1,0.2-0.1,0.3-0.1,0.5c0,0.2,0,0.3,0.1,0.4c0.1,0.1,0.2,0.2,0.3,0.2
		c0.1,0,0.2,0,0.2-0.1c0.1-0.1,0.1-0.2,0.1-0.3c0-0.1,0-0.2,0.1-0.3c0-0.1,0-0.2,0.1-0.3c0-0.2,0.1-0.3,0.2-0.4
		C2.6,58.2,2.7,58.1,2.9,58.1 M2.6,55.7c0.2,0,0.3,0,0.5,0.1c0.1,0,0.3,0.1,0.3,0.2c0.1,0.1,0.1,0.2,0.2,0.3c0,0.1,0.1,0.2,0.1,0.4
		c0,0.2,0,0.3-0.1,0.4c0,0.1-0.1,0.2-0.2,0.3c-0.1,0.1-0.2,0.2-0.3,0.2c-0.1,0-0.3,0.1-0.5,0.1H1.1v-0.3h1.5c0.1,0,0.2,0,0.3,0
		c0.1,0,0.1-0.1,0.2-0.1c0.1,0,0.1-0.1,0.2-0.2c0-0.1,0.1-0.2,0.1-0.3c0-0.1,0-0.2-0.1-0.3c0-0.1-0.1-0.1-0.2-0.2
		C3.1,56.1,3,56,3,56c-0.1,0-0.2,0-0.3,0H1.1v-0.3H2.6z M1.9,53.4c0.1,0,0.2,0,0.3,0.1c0.1,0,0.2,0.1,0.3,0.2
		c0.1,0.1,0.1,0.2,0.2,0.3c0.1,0.1,0.1,0.3,0.1,0.4v0.3h0.9V55H1.1v-0.7c0-0.2,0-0.3,0-0.4c0-0.1,0.1-0.2,0.1-0.3
		c0.1-0.1,0.1-0.2,0.2-0.2C1.6,53.4,1.7,53.4,1.9,53.4 M1.9,53.7c-0.1,0-0.2,0-0.2,0c-0.1,0-0.1,0.1-0.2,0.1c0,0.1-0.1,0.1-0.1,0.2
		c0,0.1,0,0.2,0,0.3v0.3h1v-0.3c0-0.1,0-0.2,0-0.3c0-0.1-0.1-0.1-0.1-0.2c-0.1,0-0.1-0.1-0.2-0.1C2,53.7,2,53.7,1.9,53.7 M3.6,51.3
		v1.7H1.1v-1.7h0.3v1.3h0.7v-1.3h0.3v1.3h0.9v-1.3H3.6z M3.6,48.7v0.4l-1,0.8v0.5h1v0.3H1.1V50c0-0.1,0-0.3,0-0.4
		c0-0.1,0.1-0.2,0.1-0.3c0.1-0.1,0.1-0.2,0.2-0.2c0.1-0.1,0.2-0.1,0.3-0.1c0.2,0,0.3,0,0.5,0.1c0.1,0.1,0.2,0.2,0.3,0.4L3.6,48.7z
		 M1.8,49.4c-0.1,0-0.1,0-0.2,0c-0.1,0-0.1,0.1-0.1,0.1c0,0.1-0.1,0.1-0.1,0.2c0,0.1,0,0.1,0,0.2v0.4h1v-0.3c0-0.1,0-0.2,0-0.3
		c0-0.1-0.1-0.1-0.1-0.2c0-0.1-0.1-0.1-0.2-0.1C2,49.5,1.9,49.4,1.8,49.4 M3.6,47.4v1H3.4v-0.3h-2v0.3H1.1v-1h0.3v0.3h2v-0.3H3.6z
		 M3.6,44.9v0.4l-2.3,1.2h2.3v0.3H1.1v-0.5l2.1-1.1H1.1v-0.3H3.6z M1.4,42.5v0.9h2.2v0.3H1.4v0.9H1.1v-2.1H1.4z M3.6,40.5v1.7H1.1
		v-1.7h0.3v1.3h0.7v-1.3h0.3v1.3h0.9v-1.3H3.6z M3.6,38v0.4l-2.3,1.2h2.3v0.3H1.1v-0.5l2.1-1.1H1.1V38H3.6z M2.4,35.2
		c0.2,0,0.4,0.1,0.6,0.1c0.2,0.1,0.3,0.2,0.4,0.4c0.1,0.1,0.1,0.2,0.2,0.4c0,0.1,0,0.3,0,0.6v0.6H1.1v-0.6c0-0.2,0-0.4,0.1-0.6
		c0-0.1,0.1-0.3,0.1-0.4c0.1-0.2,0.3-0.3,0.4-0.4C1.9,35.3,2.1,35.2,2.4,35.2 M2.4,35.6c-0.2,0-0.4,0-0.5,0.1
		c-0.1,0.1-0.2,0.2-0.3,0.3c-0.1,0.1-0.1,0.2-0.1,0.3c0,0.1,0,0.2,0,0.4V37h1.9v-0.3c0-0.2,0-0.3,0-0.4c0-0.1-0.1-0.2-0.1-0.3
		c-0.1-0.1-0.2-0.2-0.3-0.3C2.7,35.6,2.6,35.6,2.4,35.6 M3.6,33v1.7H1.1V33h0.3v1.3h0.7V33h0.3v1.3h0.9V33H3.6z M3.6,30.6V31
		l-2.3,1.2h2.3v0.3H1.1V32l2.1-1.1H1.1v-0.3H3.6z M3.5,27.9c0,0.1,0,0.1,0.1,0.2c0,0,0,0.1,0.1,0.2c0,0.1,0,0.1,0.1,0.2
		c0,0.1,0,0.2,0,0.3c0,0.2,0,0.4-0.1,0.5c-0.1,0.1-0.1,0.3-0.2,0.4c-0.1,0.1-0.3,0.2-0.4,0.3C2.8,30,2.6,30,2.4,30
		c-0.2,0-0.4,0-0.6-0.1c-0.2-0.1-0.3-0.1-0.4-0.3c-0.1-0.1-0.2-0.2-0.3-0.4c-0.1-0.2-0.1-0.3-0.1-0.5c0-0.1,0-0.3,0.1-0.4
		c0-0.1,0.1-0.3,0.2-0.4h0.4v0c-0.1,0.1-0.2,0.3-0.2,0.4c-0.1,0.1-0.1,0.3-0.1,0.4c0,0.1,0,0.2,0.1,0.4c0,0.1,0.1,0.2,0.2,0.3
		c0.1,0.1,0.2,0.1,0.3,0.2c0.1,0,0.3,0.1,0.4,0.1c0.2,0,0.3,0,0.5-0.1c0.1-0.1,0.2-0.1,0.3-0.2c0.1-0.1,0.1-0.2,0.2-0.3
		c0-0.1,0.1-0.2,0.1-0.3c0-0.2,0-0.3-0.1-0.4c-0.1-0.1-0.1-0.3-0.2-0.4v0H3.5z M3.6,26.6v1H3.4v-0.3h-2v0.3H1.1v-1h0.3v0.3h2v-0.3
		H3.6z M3.6,24v0.4l-0.7,0.2v1.1L3.6,26v0.3l-2.5-0.9v-0.4L3.6,24z M2.6,24.7l-1.2,0.4l1.2,0.4V24.7z M6.6,39.9c0.2,0,0.4,0,0.6,0.1
		c0.2,0.1,0.3,0.2,0.4,0.4c0.1,0.1,0.1,0.2,0.2,0.4c0,0.1,0.1,0.3,0.1,0.6V42H5.3v-0.6c0-0.2,0-0.4,0.1-0.6c0-0.1,0.1-0.3,0.1-0.4
		C5.6,40.3,5.8,40.1,6,40C6.1,39.9,6.3,39.9,6.6,39.9 M6.6,40.3c-0.2,0-0.4,0-0.5,0.1c-0.1,0.1-0.2,0.2-0.3,0.3
		c-0.1,0.1-0.1,0.2-0.1,0.3c0,0.1,0,0.3,0,0.4v0.3h1.9v-0.3c0-0.2,0-0.3,0-0.4c0-0.1-0.1-0.2-0.1-0.3c-0.1-0.1-0.2-0.2-0.3-0.3
		C6.9,40.3,6.8,40.3,6.6,40.3 M7.8,37.7v1.7H5.3v-1.7h0.3V39h0.7v-1.3h0.3V39h0.9v-1.3H7.8z M7.7,34c0,0.1,0.1,0.1,0.1,0.2
		c0,0.1,0,0.1,0.1,0.2c0,0.1,0,0.1,0.1,0.2c0,0.1,0,0.2,0,0.3c0,0.2,0,0.4-0.1,0.5c-0.1,0.2-0.1,0.3-0.2,0.4
		c-0.1,0.1-0.2,0.2-0.4,0.3c-0.2,0.1-0.4,0.1-0.6,0.1c-0.2,0-0.4,0-0.6-0.1c-0.2-0.1-0.3-0.1-0.4-0.3c-0.1-0.1-0.2-0.2-0.3-0.4
		c-0.1-0.2-0.1-0.3-0.1-0.5c0-0.1,0-0.3,0.1-0.4c0-0.1,0.1-0.3,0.2-0.4h0.4v0c-0.1,0.1-0.2,0.3-0.2,0.4c-0.1,0.1-0.1,0.3-0.1,0.4
		c0,0.1,0,0.2,0.1,0.3c0,0.1,0.1,0.2,0.2,0.3c0.1,0.1,0.2,0.1,0.3,0.2c0.1,0,0.3,0.1,0.5,0.1c0.2,0,0.3,0,0.5-0.1
		c0.1,0,0.2-0.1,0.3-0.2c0.1-0.1,0.1-0.2,0.2-0.3c0-0.1,0.1-0.2,0.1-0.3c0-0.2,0-0.3-0.1-0.4c-0.1-0.1-0.1-0.3-0.3-0.4v0H7.7z
		 M5.6,31.6c0.1-0.1,0.3-0.2,0.4-0.2c0.2,0,0.4-0.1,0.6-0.1c0.2,0,0.4,0,0.6,0.1c0.2,0.1,0.3,0.1,0.4,0.2c0.1,0.1,0.2,0.2,0.3,0.4
		c0.1,0.1,0.1,0.3,0.1,0.5c0,0.2,0,0.3-0.1,0.5c-0.1,0.1-0.1,0.3-0.3,0.4c-0.1,0.1-0.2,0.2-0.4,0.2c-0.2,0.1-0.3,0.1-0.6,0.1
		c-0.2,0-0.4,0-0.6-0.1c-0.2-0.1-0.3-0.1-0.4-0.2c-0.1-0.1-0.2-0.2-0.3-0.4c-0.1-0.1-0.1-0.3-0.1-0.5c0-0.2,0-0.3,0.1-0.5
		C5.4,31.9,5.5,31.7,5.6,31.6 M6.6,31.7c-0.3,0-0.6,0.1-0.8,0.2c-0.2,0.1-0.3,0.3-0.3,0.6c0,0.3,0.1,0.5,0.3,0.6
		c0.2,0.1,0.4,0.2,0.8,0.2c0.3,0,0.6-0.1,0.8-0.2c0.2-0.1,0.3-0.3,0.3-0.6c0-0.2-0.1-0.5-0.3-0.6C7.2,31.7,6.9,31.7,6.6,31.7
		 M7.8,29.2v1.6H5.3v-0.3h2.2v-1.3H7.8z M5.6,27c0.1-0.1,0.3-0.2,0.4-0.2c0.2-0.1,0.4-0.1,0.6-0.1c0.2,0,0.4,0,0.6,0.1
		c0.2,0.1,0.3,0.1,0.4,0.2c0.1,0.1,0.2,0.2,0.3,0.4c0.1,0.1,0.1,0.3,0.1,0.5c0,0.2,0,0.3-0.1,0.5c-0.1,0.1-0.1,0.3-0.3,0.4
		c-0.1,0.1-0.2,0.2-0.4,0.2C7,29,6.8,29,6.6,29C6.4,29,6.2,29,6,29c-0.2-0.1-0.3-0.1-0.4-0.2c-0.1-0.1-0.2-0.2-0.3-0.4
		c-0.1-0.1-0.1-0.3-0.1-0.5c0-0.2,0-0.3,0.1-0.5C5.4,27.2,5.5,27.1,5.6,27 M6.6,27c-0.3,0-0.6,0.1-0.8,0.2c-0.2,0.1-0.3,0.4-0.3,0.6
		c0,0.3,0.1,0.5,0.3,0.6c0.2,0.1,0.4,0.2,0.8,0.2c0.3,0,0.6-0.1,0.8-0.2c0.2-0.2,0.3-0.3,0.3-0.6c0-0.2-0.1-0.4-0.3-0.6
		C7.2,27.1,6.9,27,6.6,27L6.6,27z M7.8,23.9v0.3H5.7L7.1,25v0.2l-1.5,0.7h2.2v0.3H5.3v-0.5L6.7,25l-1.4-0.7v-0.5H7.8z M7.1,21.3
		c0.1,0,0.2,0,0.3,0.1c0.1,0,0.2,0.1,0.2,0.2c0.1,0.1,0.1,0.2,0.2,0.3c0,0.1,0.1,0.3,0.1,0.4v0.9H5.3v-0.7c0-0.2,0-0.3,0-0.4
		c0-0.1,0-0.2,0.1-0.3c0.1-0.1,0.1-0.2,0.2-0.2c0.1,0,0.2-0.1,0.3-0.1c0.1,0,0.2,0,0.3,0.1c0.1,0.1,0.1,0.1,0.2,0.2h0
		c0-0.2,0.1-0.3,0.2-0.4C6.7,21.4,6.9,21.3,7.1,21.3L7.1,21.3z M5.9,21.9c-0.1,0-0.1,0-0.2,0c0,0-0.1,0.1-0.1,0.1
		c0,0.1,0,0.1-0.1,0.2c0,0.1,0,0.2,0,0.3v0.4h0.7v-0.4c0-0.1,0-0.2,0-0.2c0-0.1,0-0.1-0.1-0.2c0,0-0.1-0.1-0.1-0.1
		C6.1,21.9,6,21.9,5.9,21.9L5.9,21.9z M7.1,21.7c-0.1,0-0.2,0-0.2,0c-0.1,0-0.1,0.1-0.1,0.2c0,0.1-0.1,0.1-0.1,0.2
		c0,0.1,0,0.2,0,0.3v0.5h0.9v-0.4c0-0.1,0-0.3,0-0.4c0-0.1,0-0.2-0.1-0.2c0-0.1-0.1-0.1-0.2-0.1C7.2,21.7,7.2,21.7,7.1,21.7
		L7.1,21.7z M7.8,20v1H7.6v-0.3h-2V21H5.3v-1h0.2v0.3h2V20H7.8z M7.8,17.4v0.4L7.1,18v1.1l0.7,0.2v0.3l-2.5-0.9v-0.5L7.8,17.4z
		 M6.9,18.1l-1.2,0.4L6.9,19V18.1z"/>
	<path class="st1" d="M1.4,20.1v1.3h0.7v-1.1h0.3v1.1h1.2v0.3H1.1v-1.6H1.4L1.4,20.1z M3.6,18.9v1H3.4v-0.3h-2v0.3H1.1v-1h0.3v0.3h2
		v-0.3H3.6z M3.6,16.3v0.4L1.3,18h2.3v0.3H1.1v-0.5l2.1-1.1H1.1v-0.3H3.6z M3.6,13.6V14l-0.7,0.2v1.1l0.7,0.3v0.3L1.1,15v-0.5
		L3.6,13.6z M2.6,14.3l-1.3,0.4l1.3,0.4V14.3z M3.6,11.3v0.4l-2.3,1.2h2.3v0.3H1.1v-0.5l2.1-1.1H1.1v-0.3H3.6z M3.5,8.6
		c0,0.1,0,0.1,0.1,0.2c0,0,0,0.1,0.1,0.2c0,0.1,0,0.1,0.1,0.2c0,0.1,0,0.2,0,0.3c0,0.2,0,0.3-0.1,0.5c-0.1,0.2-0.1,0.3-0.2,0.4
		c-0.1,0.1-0.2,0.2-0.4,0.3c-0.2,0.1-0.4,0.1-0.6,0.1c-0.2,0-0.4,0-0.6-0.1c-0.2-0.1-0.3-0.2-0.4-0.3c-0.1-0.1-0.2-0.2-0.3-0.4
		C1.1,9.9,1,9.7,1,9.5c0-0.1,0-0.3,0.1-0.4c0-0.1,0.1-0.3,0.2-0.5h0.4v0C1.5,8.8,1.5,8.9,1.4,9.1C1.3,9.2,1.3,9.4,1.3,9.5
		c0,0.1,0,0.2,0.1,0.3c0,0.1,0.1,0.2,0.2,0.3c0.1,0.1,0.2,0.1,0.3,0.2c0.1,0,0.3,0.1,0.5,0.1c0.2,0,0.3,0,0.5-0.1
		c0.1,0,0.2-0.1,0.3-0.2c0.1-0.1,0.1-0.2,0.2-0.3c0-0.1,0.1-0.2,0.1-0.3c0-0.2,0-0.3-0.1-0.5C3.2,8.9,3.2,8.8,3,8.7v0H3.5z M3.6,7.3
		v1H3.4V7.9h-2v0.3H1.1v-1h0.3v0.3h2V7.3H3.6z M3.6,5v1.7H1.1V5h0.3v1.3h0.7V5h0.3v1.3h0.9V5H3.6z M3.6,2.3v0.4l-1,0.9v0.5h1v0.3
		H1.1V3.7c0-0.2,0-0.3,0-0.4c0-0.1,0-0.2,0.1-0.3C1.3,3,1.3,2.9,1.4,2.9c0.1-0.1,0.2-0.1,0.3-0.1c0.2,0,0.3,0.1,0.5,0.1
		C2.4,3,2.5,3.1,2.5,3.3L3.6,2.3z M1.8,3.1c-0.1,0-0.1,0-0.2,0c-0.1,0-0.1,0.1-0.2,0.1c0,0-0.1,0.1-0.1,0.2c0,0.1,0,0.1,0,0.2v0.4h1
		V3.8c0-0.1,0-0.2,0-0.3c0-0.1-0.1-0.1-0.1-0.2c0-0.1-0.1-0.1-0.2-0.1C2,3.2,1.9,3.1,1.8,3.1L1.8,3.1z M3.6,0v0.4L2.9,0.6v1.1L3.6,2
		v0.3L1.1,1.4V0.9L3.6,0z M2.6,0.7L1.4,1.2l1.3,0.4V0.7z"/>
</g>
</svg>
