<?xml version="1.0" encoding="utf-8"?>
<!-- Generator: Adobe Illustrator 26.0.2, SVG Export Plug-In . SVG Version: 6.00 Build 0)  -->
<svg version="1.1" id="Capa_1" xmlns="http://www.w3.org/2000/svg" xmlns:xlink="http://www.w3.org/1999/xlink" x="0px" y="0px"
	 viewBox="0 0 962.6 132.2" style="enable-background:new 0 0 962.6 132.2;" xml:space="preserve">
<style type="text/css">
	.st0{fill-rule:evenodd;clip-rule:evenodd;fill:#FFFFFF;}
	.st1{fill-rule:evenodd;clip-rule:evenodd;fill:#008BA1;}
	.st2{fill:#FFDD00;}
	.st3{fill-rule:evenodd;clip-rule:evenodd;fill:#FFDD00;}
	.st4{fill:#008BA1;}
	.st5{fill:none;}
	.st6{fill:#FFFFFF;}
</style>
<g>
	<g>
		<g>
			<g>
				<g>
					<rect x="13.3" class="st0" width="379.1" height="96.9"/>
					<path class="st1" d="M169.2,5h217.1v86.5H126.9c6.9-2.5,13.4-6.5,18.6-12.4c16-17.9,17.5-34.2,3.4-41.4
						c-21.3-8.1-43.3,8.3-46.4,22.2c-3.3,13.3,6.7,16.1,13,15c5.8-1.4,10.7-4.6,13.7-10.4c2.4-6.2-0.7-9.2-6.9-7.8
						c-2.8,1-4.4,3.3-5.3,4.9c-1.6-3.7,2.2-8.2,9.2-11.5c6.2-3.3,21.5-2.2,17.7,11.9c-3.9,11-14.4,19.7-34.3,21.8
						C91,84.3,85,72.6,93.2,55.5C100.8,38.1,131.4,19.4,169.2,5z"/>
					<g>
						<path class="st2" d="M234.5,30.3l-3.2,6.6h5.3l-3.3,6.8c-0.3,0.1-0.5,0.1-0.9,0.1c-0.3,0-0.6,0-0.9,0c-2.7,0-4.3-0.6-5.1-1.9
							c-0.9-1.4-0.8-3.4,0-6.3c0.6-1.9,1.5-4,2.5-5.8c1-1.8,2.1-3.4,3.4-4.7c1.4-1.4,2.8-2.6,4.3-3.4c1.5-0.8,3.1-1.3,4.7-1.3
							c1.5,0,2.9,0.4,3.9,1.2c1.1,0.6,2.1,1.9,3,3.7h0.8l4-8.2c-1.5-1.3-2.9-2-4.4-2.6c-0.1,0-0.3,0-0.4,0c-1.4-0.4-3-0.6-4.8-0.6
							c-5.2,0-10,2.2-14.6,6.4c-4.7,4.2-7.9,9.7-10,16.5c-1.3,4.3-1.3,7.7,0.3,10c1.4,2.3,4,3.5,7.8,3.5c2,0,3.9-0.3,5.9-0.8
							c1.9-0.5,3.8-1.1,5.7-1.9l8.2-17.3H234.5z"/>
						<polygon class="st2" points="264.8,19.4 267.9,13.1 261,13.1 259.5,16.1 258,19.4 259.5,19.4 						"/>
						<polygon class="st2" points="262.8,23.3 259.5,23.3 256.4,23.3 248.4,39.8 243.7,49.7 248.4,49.7 250.2,49.7 259.5,30.1 
													"/>
						<path class="st2" d="M301.6,36.7c0.6-1.2,1.1-2.4,1.5-3.8c1-3.2,0.9-5.8-0.1-7.7c-0.4-0.6-0.8-1.2-1.4-1.5
							c-1.1-0.8-2.7-1.3-4.7-1.3c-2.1,0-4.2,0.5-6.1,1.4c-0.1,0-0.1,0.1-0.3,0.1c-1.8,0.9-3.5,2.2-5,3.6c-1.6,1.7-3.2,3.6-4.4,5.6
							c-0.1,0.4-0.4,0.7-0.5,1c-1,1.8-1.8,3.7-2.4,5.6c-1,3.3-1,6,0.1,7.8c0.5,0.9,1.3,1.7,2.3,2.2c1,0.4,2.3,0.6,3.8,0.6
							c2.1,0,4-0.4,5.9-1.3c0.1,0,0.2-0.1,0.2-0.1c1.8-0.9,3.4-2.1,5.1-3.6c1.6-1.5,3-3.5,4.4-5.6C300.5,38.9,301.2,37.9,301.6,36.7
							z M296.3,33.3c-0.6,1.8-1.3,3.3-1.9,4.7c-0.8,1.3-1.5,2.4-2.4,3.6c-0.4,0.5-0.9,1-1.4,1.4c-0.4,0.4-0.8,0.6-1.1,0.9
							c-0.9,0.5-1.6,0.8-2.6,0.8c-1,0-1.7-0.4-2.1-1.2c-0.4-0.8-0.3-2,0.3-3.8c0.5-1.5,1-3.1,1.8-4.5c0.8-1.4,1.5-2.7,2.3-3.7
							c0.5-0.6,1-1.1,1.5-1.5c0.4-0.4,0.8-0.6,1.1-0.9c0.7-0.5,1.6-0.9,2.7-0.9c1.1,0,1.9,0.5,2.1,1.3
							C296.8,30.3,296.6,31.6,296.3,33.3z"/>
						<path class="st2" d="M325.6,23.2c-1.4-0.4-2.9-0.6-4.4-0.6c-3.4,0-6.4,0.9-9.1,2.5c-2.5,1.8-4.3,4.1-5.2,7
							c-0.5,1.8-0.4,3.2,0.3,4.4c0.6,1.3,2.3,2.2,4.7,3.1c1.5,0.5,2.5,0.9,2.9,1.2c0.4,0.4,0.5,0.9,0.4,1.5
							c-0.3,0.8-0.9,1.4-1.8,1.8c-0.8,0.5-2,0.6-3.4,0.6c-1,0-1.9-0.1-2.7-0.4c-0.8-0.2-1.4-0.5-1.9-0.9c-0.6-0.4-1.1-0.8-1.4-1.1
							c-0.2-0.3-0.5-0.7-0.7-0.9h-0.5l-1.3,2.4l-2.2,4.5c0.5,0.4,1.3,0.8,2.2,1.2c0.4,0.1,0.8,0.3,1.1,0.4c1.5,0.4,3.1,0.5,4.9,0.5
							c3.5,0,6.6-0.8,9.1-2.4c2.6-1.8,4.3-4.1,5.1-7c0.7-1.9,0.5-3.4-0.2-4.6c-0.8-1-2.4-1.9-4.7-2.7c-1.3-0.4-2.1-0.8-2.6-1.2
							c-0.5-0.4-0.8-0.9-0.5-1.5c0.2-0.9,0.9-1.5,1.6-2c0.9-0.4,2-0.6,3.4-0.6c1.3,0,2.4,0.2,3.5,0.8c1,0.6,1.9,1.3,2.4,2.2h0.6
							l3.2-6.7C328.1,23.9,327,23.5,325.6,23.2z"/>
						<path class="st2" d="M279.2,31.4h0.6l0.8-1.7l3-6.4c-0.1,0-0.4-0.1-0.6-0.1c-0.4,0-0.6,0-0.9,0c-0.5,0-1,0.1-1.5,0.3
							c-0.8,0.1-1.6,0.4-2.4,0.9c-1.5,0.6-3,1.7-4.5,2.8l1.8-3.8H269l-9.5,19.5l-3.2,6.9h3.2h3.3l8.5-17.7c1-0.4,1.9-0.6,2.8-0.8
							c0.8-0.3,1.7-0.3,2.5-0.3c0.5,0,1,0,1.5,0.1C278.6,31.1,279,31.2,279.2,31.4z"/>
					</g>
					<path class="st0" d="M350,29.2l-3.5,7.6l-1.9-4.6l-0.6-1.7c0.2-0.1,0.5-0.1,0.6-0.3c1.4-0.5,2.5-1,3.5-1.7
						c1.1-0.8,2.2-1.5,3-2.3c0.9-0.9,1.5-1.8,2.1-2.7c0.6-1,1-2.1,1.4-2.9c0.6-2,0.2-3.7-0.9-4.9c-1.1-1.1-3-1.8-5.8-1.8
						c-1.1,0-2.3,0.1-3.4,0.4c-0.4,0.1-0.9,0.3-1.2,0.4c-1.5,0.5-2.8,1.3-3.9,2.1c-1.1,0.9-2,1.8-2.8,2.9c-0.1,0-0.1,0.1-0.1,0.1
						c-0.9,1.2-1.5,2.4-1.9,3.7c-0.3,1.3-0.5,2.3-0.3,3.3c0.1,1,0.3,2,1,3.2c-1.1,0.6-2.3,1.3-3.3,1.9c-1,0.8-2,1.5-2.9,2.4
						c-0.9,1-1.7,2.1-2.4,3.2c-0.6,1.1-1.1,2.3-1.5,3.7c-0.9,2.7-0.8,5,0.5,6.5c1.3,1.7,3.3,2.4,6.2,2.4c1.3,0,2.7-0.3,4.3-0.8
						c0.3,0,0.4-0.1,0.5-0.1c1.5-0.5,3.3-1.4,5.1-2.7l1.3,3h1.6h6.9l0.1-0.5l-3.3-7.8c1.5-1.2,2.8-2.6,4-4.2
						c1.1-1.5,2.3-3.3,3.2-5.3l1.3-2.7H350z M338,44c-0.4,0.1-0.9,0.2-1.4,0.2c-0.2,0-0.5,0-0.6,0c-1.5,0-2.4-0.4-2.9-1.4
						c-0.4-1-0.4-2.3,0.1-4c0.2-0.9,0.6-1.8,1.3-2.7c0.6-0.8,1.2-1.5,2.1-2.2c0-0.1,0.1-0.1,0.3-0.2l3.5,8.9
						C339.5,43.3,338.8,43.8,338,44z M342.7,27.5c-0.5-0.9-0.8-1.7-1-2.6c-0.1-0.9-0.1-1.7,0.1-2.4c0.4-1.2,0.9-2.1,1.6-2.7
						c0.4-0.3,0.8-0.5,1.1-0.6c0.5-0.1,0.9-0.2,1.4-0.2c0.8,0,1.3,0.2,1.5,0.8c0.2,0.5,0.1,1.2-0.1,2.1c-0.2,1-0.9,2-1.8,3.1
						c-0.2,0.4-0.6,0.8-1,1.1C344.1,26.5,343.4,27,342.7,27.5z"/>
					<g>
						<path class="st2" d="M227.5,64.5c0.2-0.4,0.4-0.8,0.5-1.2c0.3-0.6,0.4-1.1,0.5-1.5c0.7-2.2,0.7-3.8,0-5
							c-0.2-0.5-0.5-0.8-1-1.2c-0.6-0.4-1.5-0.6-2.7-0.6c-1.4,0-2.6,0.4-3.9,1c-1.4,0.6-2.8,1.5-4.5,2.7l1.5-2.9h-6.6l-10.6,22.1
							l-2,4.2h2h4.4l9-18.7c1-0.5,1.9-1,2.7-1.3c0.8-0.3,1.4-0.5,2-0.5c1,0,1.6,0.3,1.9,0.8c0.2,0.5,0.2,1.2,0,2.2
							c-0.3,0.7-0.5,1.3-0.8,1.9c-0.4,0.8-0.7,1.5-1.1,2.6l-6.3,13.1h6.6l8.2-17.2C227.3,64.9,227.3,64.6,227.5,64.5z"/>
						<path class="st2" d="M192.3,61.4l1.3-2.7l1.4-2.9h-1.4h-3.7l0.1-0.1c0.9-1.8,1.6-3,2.4-3.5c0.3-0.4,0.8-0.5,1.2-0.6
							c0.5-0.3,1.1-0.4,1.8-0.4c0.4,0,0.9,0.1,1.3,0.2c0.5,0.1,0.9,0.3,1.1,0.4h0.5l2.5-5.2l0.2-0.8c-0.1,0-0.1,0-0.2,0
							c-0.5-0.1-1-0.3-1.7-0.3c-0.8-0.1-1.6-0.1-2.6-0.1c-1,0-2,0.1-2.9,0.3c-1.7,0.4-3.2,1.2-4.4,2.2c-1.9,1.7-3.7,4.1-5.2,7.3
							l-0.4,0.6h-2.8l-2.6,5.6h2.8l-10,20.7h6.6l10-20.7H192.3z"/>
						<polygon class="st2" points="205.2,55.8 200.7,55.8 198.7,55.8 193.5,66.6 186.1,82.2 192.5,82.2 193.5,80.1 200.7,65.3 
													"/>
						<polygon class="st2" points="200.3,52.1 200.7,52.1 207.1,52.1 210.3,45.7 203.3,45.7 200.7,51.3 						"/>
						<path class="st2" d="M252.2,64.3c0.2-0.4,0.4-0.8,0.6-1.3c0.1-0.5,0.4-0.9,0.4-1.3c0.7-2.3,0.5-4-0.6-5
							c-0.3-0.2-0.6-0.5-1-0.6c-1.3-0.6-3-1-5.5-1c-1.5,0-3.2,0.1-4.8,0.5c-1.3,0.3-2.1,0.4-2.9,0.7c-0.4,0-0.6,0.1-0.9,0.1
							l-2.9,6.3h0.6c0.8-0.2,1.8-0.6,3.2-1.1c0,0,0,0,0.1,0c1.4-0.5,2.6-0.7,3.8-0.7c1.5,0,2.6,0.1,3.3,0.7c0.6,0.4,0.9,1.1,0.5,2.3
							c-0.1,0.2-0.1,0.5-0.3,0.8c-0.1,0.1-0.3,0.2-0.3,0.4c-2.3,0.3-4.4,0.5-6.4,0.8c-0.3,0.1-0.5,0.1-0.8,0.2
							c-1.8,0.3-3.4,0.9-4.8,1.5c-1.8,0.9-3.3,2-4.4,3.5c-0.6,0.8-1.1,1.5-1.6,2.6c-0.4,0.8-0.8,1.8-1.1,2.8
							c-0.6,1.9-0.5,3.6,0.1,4.7c0.3,0.5,0.6,0.9,1,1.2c0.6,0.5,1.5,0.8,2.6,0.8c1,0,1.9-0.1,2.5-0.4c0.6-0.1,1.3-0.4,2.2-0.8
							c0.5-0.3,1.1-0.6,1.9-1.2c0.6-0.4,1.1-0.8,1.6-1c0-0.1,0.1-0.1,0.3-0.3l-0.3,0.6l-1.1,2.2h1.1h5.3l8-16.7L252.2,64.3z
							 M240.4,75.3c-0.7,0.5-1.4,1-2.1,1.4c-0.1,0-0.2,0-0.2,0.1c-0.9,0.4-1.6,0.5-2.3,0.5c-1,0-1.6-0.1-2-0.5
							c-0.5-0.4-0.5-1-0.3-1.9c0.4-1,0.8-1.9,1.4-2.4c0.5-0.6,1.2-1.2,2-1.5c0.5-0.1,0.9-0.3,1.4-0.4c0.4-0.1,0.9-0.3,1.5-0.4
							c1-0.1,2.1-0.3,3.3-0.4L240.4,75.3z"/>
						<path class="st2" d="M325.3,64.3c0.1-0.4,0.4-0.8,0.5-1.3c0.2-0.5,0.4-0.9,0.5-1.3c0.6-2.3,0.4-4-0.8-5
							c-0.4-0.4-0.8-0.6-1.3-0.8c-1.1-0.6-2.9-0.9-5.3-0.9c-1.5,0-3.2,0.1-4.8,0.5c-1.3,0.3-2.1,0.4-2.9,0.7c-0.4,0-0.6,0.1-0.9,0.1
							l-2.9,6.3h0.6c0.8-0.2,1.8-0.6,3.1-1.1h0.1c1.4-0.5,2.6-0.7,3.8-0.7c1.5,0,2.7,0.1,3.3,0.7c0.6,0.4,0.9,1.1,0.5,2.3
							c-0.1,0.2-0.1,0.5-0.3,0.8c-0.1,0.1-0.1,0.2-0.3,0.4c-2.3,0.3-4.4,0.5-6.4,0.8c-0.3,0.1-0.5,0.1-0.8,0.2
							c-1.8,0.3-3.4,0.9-4.8,1.5c-1.6,0.8-3,1.9-4.2,3.2c-0.1,0.1-0.1,0.1-0.2,0.3c-1.1,1.5-2.1,3.2-2.8,5.4
							c-0.5,1.9-0.5,3.6,0.3,4.7c0.5,1,1.5,1.7,2.8,1.8c0.2,0,0.5,0.1,0.8,0.1c1,0,1.9-0.1,2.5-0.4c0.6-0.1,1.4-0.4,2.1-0.8
							c0.5-0.3,1.3-0.6,1.9-1.2c0.6-0.4,1.1-0.8,1.6-1c0.1-0.1,0.1-0.1,0.3-0.3l-0.3,0.6l-1.1,2.2h1.1h5.4l7.6-16L325.3,64.3z
							 M313.4,75.3c-0.6,0.5-1.4,1-2.1,1.4c-0.1,0-0.3,0-0.3,0.1c-0.9,0.4-1.6,0.5-2.3,0.5c-1,0-1.6-0.1-2-0.5
							c-0.4-0.4-0.5-1-0.3-1.9c0.4-1,0.8-1.9,1.4-2.4c0.5-0.6,1.3-1.2,2.2-1.5c0.4-0.1,0.7-0.3,1.2-0.4c0.5-0.1,1-0.3,1.5-0.4
							c1-0.1,2.2-0.3,3.4-0.4L313.4,75.3z"/>
						<path class="st2" d="M278.2,65c0.2-0.7,0.5-1.2,0.8-1.7c0.1-0.6,0.4-1.1,0.5-1.5c0.6-2.2,0.6-3.8,0-5
							c-0.5-0.9-1.3-1.4-2.4-1.7c-0.4,0-0.9-0.1-1.4-0.1c-1.3,0-2.5,0.4-3.9,1c-1.3,0.6-2.8,1.5-4.4,2.7l1.4-2.9h-6.6l-10.6,22.1
							l-2,4.2h2h4.5l9-18.7c1-0.5,1.9-1,2.6-1.3c0.8-0.3,1.4-0.5,1.9-0.5c1.1,0,1.8,0.3,2,0.8c0.2,0.5,0.2,1.2-0.1,2.2
							c-0.1,0.7-0.4,1.3-0.8,1.9c-0.3,0.8-0.6,1.5-1.1,2.6l-6.2,13.1h6.6l7.1-15L278.2,65z"/>
						<path class="st2" d="M348.3,55.7c-1.4-0.4-2.9-0.6-4.4-0.6c-3.4,0-6.4,0.9-9.1,2.6c-2.5,1.8-4.3,4.1-5.2,7
							c-0.5,1.8-0.4,3.3,0.2,4.5c0.7,1.1,2.3,2.2,4.7,2.9c1.5,0.5,2.5,0.9,2.9,1.3c0.4,0.2,0.5,0.8,0.4,1.4
							c-0.3,0.8-0.9,1.4-1.8,1.9c-0.8,0.4-2,0.6-3.4,0.6c-1,0-1.9-0.1-2.7-0.4c-0.8-0.3-1.4-0.7-1.9-1c-0.6-0.4-1.1-0.8-1.4-1
							c-0.3-0.4-0.5-0.8-0.7-1h-0.5l-1.2,2.2l-2.3,4.7c0.6,0.5,1.4,0.9,2.3,1.1c0.4,0.1,0.6,0.3,1,0.4c1.5,0.4,3.1,0.6,4.9,0.6
							c3.5,0,6.6-0.9,9.1-2.5c2.6-1.7,4.3-4.1,5.2-7c0.6-1.9,0.5-3.5-0.3-4.6c-0.8-1-2.4-1.9-4.7-2.7c-1.3-0.4-2.1-0.8-2.6-1.2
							c-0.5-0.4-0.8-0.9-0.5-1.5c0.2-0.9,0.9-1.5,1.8-2c0.8-0.4,1.9-0.6,3.3-0.6c1.3,0,2.5,0.3,3.5,0.9c1,0.5,1.9,1.2,2.4,2.1h0.6
							l3.2-6.7C350.6,56.6,349.6,56.1,348.3,55.7z"/>
						<polygon class="st2" points="302.3,61.7 303.3,60.9 305.7,55.8 302.3,55.8 287.3,55.8 284.5,61.7 294.6,61.7 277.1,76.7 
							276.8,77 274.3,82.2 277.1,82.2 293.2,82.2 296.1,76.2 285.5,76.2 						"/>
					</g>
					<path class="st3" d="M18.1,5h118.1c-20.1,9.5-41,22.3-51.9,36.9c-18.7,23.7-11.5,41.5-1.5,49.7H18.1V5z"/>
				</g>
			</g>
			<g>
				<path class="st4" d="M140.5,105.3c-0.2-0.2-0.7-0.3-1-0.4c-0.4-0.1-0.9-0.1-1.4-0.1c-0.7,0-1.4,0.1-1.9,0.3
					c-0.1,0-0.2,0.1-0.3,0.1c-0.8,0.3-1.5,0.9-2.2,1.4c-0.7,0.7-1.2,1.3-1.8,2.1c-0.5,0.9-0.8,1.7-1.2,2.7c-0.2,1-0.2,1.9,0.1,2.4
					c0.5,0.6,1,0.8,1.9,0.8c0.6,0,1.1,0,1.6-0.2c0.5-0.1,1-0.4,1.8-0.9c0,0,0.1,0,0.2-0.1l-0.2,0.6l-0.3,0.4h0.3h1.4l6.7-13.2h-1.6
					L140.5,105.3z M137.1,112.1c-0.3,0.2-0.6,0.3-0.9,0.4c-0.2,0.1-0.5,0.2-0.7,0.3c-0.6,0.2-1.1,0.3-1.6,0.3
					c-0.7,0-1.1-0.1-1.4-0.6c-0.2-0.3-0.2-0.9,0-1.6c0.1-0.5,0.4-1.2,0.8-1.8c0.3-0.7,0.7-1.2,1.1-1.7c0.4-0.4,0.9-0.9,1.5-1.1
					c0.1,0,0.1-0.1,0.2-0.1c0.5-0.2,1-0.3,1.5-0.3c0.5,0,0.8,0,1.1,0.1c0.3,0.1,0.7,0.2,1,0.4L137.1,112.1z"/>
				<polygon class="st4" points="176.9,111.6 175.5,114.4 176.9,114.4 177.1,114.4 182,105 180.3,105 				"/>
				<path class="st4" d="M21.3,104.7c-0.9,0-1.7,0.1-2.5,0.4c-0.9,0.3-1.6,0.8-2.3,1.3c-0.7,0.7-1.2,1.3-1.7,2.1
					c-0.6,0.8-0.9,1.6-1.1,2.5c-0.2,0.6-0.2,1.1-0.1,1.6c0,0.5,0.1,0.8,0.4,1.1c0.2,0.3,0.6,0.6,1,0.7c0.5,0.1,0.9,0.2,1.6,0.2
					c0.6,0,1.1-0.1,1.7-0.2c0.7-0.2,1.3-0.3,1.8-0.6l0.8-1.8h-0.1c-0.1,0.1-0.3,0.2-0.6,0.3c-0.4,0.1-0.6,0.2-0.9,0.5
					c-0.3,0.1-0.7,0.2-1,0.3c-0.4,0.1-0.8,0.1-1.1,0.1c-0.8,0-1.4-0.2-1.6-0.7c-0.3-0.4-0.3-1-0.1-1.8c0.3-1.3,1-2.5,1.9-3.5
					c1-0.9,2-1.3,3.2-1.3c0.3,0,0.7,0,0.9,0.1c0.2,0.1,0.4,0.2,0.7,0.3c0.2,0.1,0.3,0.2,0.6,0.3c0.1,0.1,0.2,0.2,0.3,0.3l0.9-1.7
					c-0.3-0.2-0.8-0.5-1.3-0.6C22.3,104.8,21.8,104.7,21.3,104.7z"/>
				<path class="st4" d="M67.4,104.7c-0.6,0-1.2,0.1-1.8,0.3c-0.5,0.1-1,0.5-1.5,0.7c-0.1,0.1-0.2,0.1-0.4,0.2l0.4-0.6l0.2-0.4h-0.2
					h-1.5L56,117.8h1.6l2-3.9c0.3,0.2,0.7,0.3,1,0.4c0.4,0.1,0.9,0.2,1.5,0.2c0.6,0,1.2-0.1,1.9-0.4c0.1,0,0.1-0.1,0.2-0.1
					c0.8-0.3,1.5-0.8,2.2-1.5c0.7-0.6,1.3-1.2,1.7-2c0.6-0.9,1-1.8,1.2-2.7c0.2-1,0.2-1.9-0.1-2.4C69,105,68.5,104.7,67.4,104.7z
					 M67.7,108.3c-0.2,0.7-0.5,1.2-0.8,1.8c-0.2,0.7-0.7,1.1-1.1,1.7c-0.4,0.4-0.9,0.8-1.5,1c0,0.1-0.1,0.1-0.1,0.1
					c-0.6,0.2-1,0.3-1.6,0.3c-0.5,0-0.9,0-1.3-0.1c-0.2-0.1-0.6-0.2-0.9-0.5l2.7-5.3c0.3-0.2,0.7-0.3,1-0.6c0.2,0,0.4-0.1,0.7-0.2
					c0.6-0.2,1-0.3,1.6-0.3c0.6,0,1,0.1,1.3,0.6C67.9,107.1,67.9,107.5,67.7,108.3z"/>
				<path class="st4" d="M152.3,104.7c-0.7,0-1.4,0-1.9,0.2c-1,0.3-1.9,0.9-2.7,1.6c-1.5,1.2-2.5,2.8-3,4.5
					c-0.3,1.2-0.2,2.1,0.5,2.8c0.6,0.6,1.5,0.9,2.8,0.9c0.4,0,0.8,0,1-0.1c0.3,0,0.7-0.1,1-0.1c0.1-0.1,0.2-0.1,0.3-0.1
					c0.2-0.1,0.5-0.1,0.7-0.2c0.2,0,0.5-0.1,0.8-0.2l0.8-1.8c-0.6,0.3-1.3,0.7-1.9,0.9c-0.1,0-0.2,0-0.3,0.1
					c-0.7,0.1-1.3,0.2-1.7,0.2c-0.9,0-1.6-0.2-1.9-0.7c-0.5-0.4-0.5-1.1-0.2-1.9c0-0.1,0-0.3,0.1-0.4c0-0.1,0.1-0.3,0.2-0.4h3.5h3.5
					c0.3-0.6,0.5-0.9,0.7-1.3c0.1-0.3,0.2-0.7,0.2-0.8c0.3-1,0.2-1.7-0.2-2.2C154.1,105,153.3,104.7,152.3,104.7z M153.2,107.8
					c0,0.1-0.1,0.2-0.1,0.3c-0.1,0.1-0.1,0.3-0.2,0.4h-2.5h-3c0.5-0.8,1-1.4,1.8-1.9c0.3-0.3,0.7-0.4,1.1-0.6
					c0.3-0.2,0.8-0.2,1.3-0.2c0.7,0,1.2,0.1,1.5,0.4C153.3,106.7,153.3,107.3,153.2,107.8z"/>
				<path class="st4" d="M117.3,105.3c-0.4-0.4-1.4-0.5-2.5-0.5c-0.7,0-1.2,0-1.9,0.1c-0.4,0.1-0.7,0.1-1,0.2
					c-0.2,0-0.3,0.1-0.4,0.1l-0.8,1.6h0.1c0.3-0.1,0.7-0.2,1.1-0.3c0.1,0,0.4-0.1,0.5-0.1c0.7-0.1,1.3-0.2,1.8-0.2
					c0.3,0,0.6,0,0.8,0c0.3,0.1,0.6,0.1,0.7,0.2c0.2,0.1,0.3,0.2,0.3,0.4c0.1,0.1,0.1,0.3,0,0.7c0,0.1-0.1,0.2-0.1,0.3
					c-0.1,0.1-0.1,0.2-0.2,0.4c-1.1,0-2.3,0.1-3.2,0.2c-0.2,0-0.4,0.1-0.6,0.1c-0.7,0.1-1.4,0.3-2.1,0.7c-0.7,0.2-1.4,0.7-1.8,1.2
					c-0.5,0.6-0.8,1.1-1,1.9c-0.2,0.7-0.1,1.2,0.2,1.7c0.3,0.4,0.9,0.7,1.7,0.7c0.5,0,0.9,0,1.2-0.1c0.5-0.1,0.8-0.2,1.1-0.3
					c0.2,0,0.3-0.1,0.6-0.2c0.1-0.1,0.2-0.1,0.4-0.2c0.3-0.1,0.6-0.2,0.8-0.3l-0.6,1h1.6l3.3-6.4c0.1-0.1,0.2-0.3,0.2-0.5
					c0.1-0.2,0.1-0.3,0.2-0.6C118,106.2,117.7,105.6,117.3,105.3z M113.6,112.1c-0.6,0.3-1.3,0.6-1.8,0.8c0,0,0,0,0,0.1
					c-0.6,0.2-1.1,0.3-1.7,0.3c-0.6,0-1-0.1-1.2-0.3c-0.2-0.2-0.2-0.6-0.1-1c0.1-0.4,0.3-0.9,0.7-1.1c0.3-0.3,0.8-0.7,1.3-0.8
					c0.3-0.1,0.7-0.2,1.1-0.3c0.2,0,0.5-0.1,0.7-0.1c0.8-0.1,1.6-0.2,2.5-0.2L113.6,112.1z"/>
				<path class="st4" d="M53.8,104.7c-0.6,0-1.3,0.1-1.9,0.3c-0.7,0.2-1.5,0.6-2.4,1.1c0-0.4-0.1-0.8-0.5-1.1
					c-0.3-0.2-0.8-0.3-1.5-0.3c-0.6,0-1.1,0.1-1.7,0.3c-0.6,0.2-1.3,0.6-1.9,0.9l0.4-1h-1.6l-4.9,9.5h1.7l3.7-7.1
					c0.8-0.4,1.5-0.7,1.9-0.9c0.5-0.2,0.9-0.2,1.3-0.2c0.5,0,0.8,0,1,0.2c0.2,0.2,0.3,0.6,0.2,1.1c-0.1,0.2-0.2,0.5-0.3,0.7
					c-0.1,0.2-0.2,0.4-0.4,0.9l-2.8,5.3h1.7l3.1-6c0.1-0.2,0.1-0.3,0.2-0.6c0.1-0.1,0.1-0.3,0.2-0.4c0.6-0.3,1.2-0.7,1.7-0.9
					c0.6-0.2,1.1-0.3,1.6-0.3c0.6,0,0.9,0.1,1.2,0.3c0.1,0.2,0.1,0.6,0,1c0,0.2-0.1,0.5-0.2,0.7c-0.1,0.2-0.2,0.6-0.5,0.9l-2.7,5.3
					h1.7l3.1-6.1c0.1-0.2,0.2-0.5,0.3-0.7c0.1-0.2,0.1-0.4,0.2-0.6c0.1-0.8,0.1-1.3-0.2-1.8C55.1,104.8,54.6,104.7,53.8,104.7z"/>
				<path class="st4" d="M97.8,100.7c-0.1,0.3-0.5,0.7-0.7,1c-0.2,0.2-0.5,0.3-0.8,0.3c-0.2,0-0.4-0.1-0.5-0.2
					c-0.2-0.1-0.3-0.2-0.4-0.5c-0.1-0.2-0.3-0.3-0.5-0.4c-0.2-0.1-0.6-0.2-0.8-0.2c-0.6,0-1.1,0.2-1.7,0.7c-0.6,0.5-1,1.1-1.5,1.9h1
					c0.2-0.4,0.6-0.8,0.8-1c0.2-0.2,0.5-0.3,0.7-0.3c0.2,0,0.4,0,0.6,0.1c0.1,0.2,0.2,0.3,0.3,0.6c0.2,0.2,0.3,0.4,0.6,0.6
					c0.2,0.1,0.5,0.1,0.8,0.1c0.6,0,1.1-0.2,1.7-0.7c0.5-0.4,1-1,1.5-1.9H97.8z"/>
				<path class="st4" d="M94.7,104.7c-0.6,0-1.1,0.1-1.8,0.3c-0.6,0.2-1.3,0.6-1.9,0.9l0.6-1h-1.7l-4.8,9.5h1.6l3.6-7.1
					c0.6-0.3,1.1-0.6,1.7-0.8c0.7-0.2,1.1-0.3,1.6-0.3c0.7,0,1,0.1,1.2,0.3c0.1,0.2,0.1,0.6,0,1.1c0,0.1-0.1,0.3-0.2,0.6
					c-0.1,0.2-0.2,0.6-0.3,0.9l-2.7,5.3h1.6l3.1-6.1c0.1-0.2,0.2-0.5,0.3-0.7c0.1-0.2,0.1-0.3,0.2-0.6c0.1-0.8,0.1-1.3-0.2-1.8
					C96.2,104.8,95.5,104.7,94.7,104.7z"/>
				<polygon class="st4" points="98.9,114.4 100.5,114.4 105.4,105 103.8,105 				"/>
				<polygon class="st4" points="106.6,100.8 104.5,103.4 106.3,103.4 108.4,100.8 				"/>
				<path class="st4" d="M32.9,104.7c-0.8,0-1.6,0.1-2.3,0.4h-0.1c-0.8,0.3-1.5,0.8-2.2,1.4c-0.7,0.6-1.2,1.2-1.7,2
					c-0.5,0.8-0.8,1.6-1,2.5c-0.3,1.1-0.2,2,0.2,2.7c0.5,0.6,1.3,0.9,2.4,0.9c0.9,0,1.6-0.1,2.4-0.4c0,0,0,0,0.1,0
					c0.7-0.3,1.5-0.8,2.1-1.5c0.7-0.6,1.2-1.2,1.7-2c0.5-0.8,0.9-1.6,1.2-2.4c0.2-1.1,0.2-2-0.3-2.7C34.8,105,34,104.7,32.9,104.7z
					 M33.8,108.4c-0.1,0.7-0.3,1.3-0.7,1.9c-0.3,0.6-0.7,1.1-1.1,1.6c-0.5,0.4-0.9,0.8-1.4,1c-0.1,0.1-0.1,0.1-0.1,0.1
					c-0.6,0.2-1,0.3-1.6,0.3c-0.8,0-1.3-0.1-1.5-0.6c-0.3-0.4-0.3-1-0.1-1.8c0.2-0.7,0.5-1.3,0.8-1.9c0.3-0.7,0.7-1.1,1.1-1.6
					c0.5-0.4,0.9-0.8,1.4-1.1c0,0,0,0,0.1,0c0.5-0.2,1-0.4,1.6-0.4c0.7,0,1.1,0.2,1.5,0.7C34,107.1,34,107.6,33.8,108.4z"/>
				<path class="st4" d="M82.4,105.3c-0.5-0.4-1.4-0.5-2.5-0.5c-0.6,0-1.3,0-1.9,0.1c-0.3,0.1-0.7,0.1-1,0.2c-0.1,0-0.3,0.1-0.5,0.1
					l-0.8,1.6h0.1c0.3-0.1,0.7-0.2,1.1-0.3c0.2,0,0.4-0.1,0.6-0.1c0.6-0.1,1.3-0.2,1.7-0.2c0.4,0,0.6,0,0.9,0
					c0.2,0.1,0.5,0.1,0.6,0.2c0.2,0.1,0.3,0.2,0.3,0.4c0.1,0.1,0.1,0.3,0,0.7c0,0.1,0,0.2-0.1,0.3c0,0.1-0.1,0.2-0.2,0.4
					c-1.1,0-2.3,0.1-3.2,0.2c-0.2,0-0.3,0.1-0.6,0.1c-0.7,0.1-1.4,0.3-1.9,0.7c-0.8,0.2-1.4,0.7-1.9,1.2c-0.4,0.6-0.8,1.1-1,1.9
					c-0.1,0.7-0.1,1.2,0.2,1.7c0.5,0.4,0.9,0.7,1.7,0.7c0.5,0,0.9,0,1.4-0.1c0.3-0.1,0.7-0.2,1-0.3c0.2,0,0.5-0.1,0.6-0.2
					c0.1-0.1,0.2-0.1,0.4-0.2c0.3-0.1,0.6-0.2,0.8-0.3l-0.6,1h1.7l3.2-6.4c0.1-0.1,0.2-0.3,0.2-0.5c0.1-0.2,0.2-0.3,0.2-0.6
					C83.1,106.2,83,105.6,82.4,105.3z M78.7,112.1c-0.6,0.3-1.1,0.6-1.8,0.8c0,0,0,0,0,0.1c-0.6,0.2-1.1,0.3-1.7,0.3
					c-0.6,0-0.9-0.1-1.1-0.3c-0.2-0.2-0.3-0.6-0.2-1c0.1-0.4,0.4-0.9,0.7-1.1c0.3-0.3,0.8-0.7,1.2-0.8c0.3-0.1,0.8-0.2,1.1-0.3
					c0.2,0,0.5-0.1,0.7-0.1c0.8-0.1,1.6-0.2,2.5-0.2L78.7,112.1z"/>
				<path class="st4" d="M173,105l0.2-0.3c0.3-0.8,0.8-1.2,1.3-1.7c0.5-0.3,1-0.4,1.7-0.4c0.2,0,0.4,0,0.7,0c0.1,0,0.1,0,0.1,0
					c0.2,0.1,0.4,0.1,0.6,0.2h0.1l0.7-1.4c-0.2,0-0.5-0.1-0.8-0.1c-0.1,0-0.3,0-0.7,0c0,0-0.1,0-0.2,0c-1.1,0-2.1,0.2-3,0.9
					c-0.8,0.6-1.5,1.4-2,2.6l-0.2,0.3h-1l-0.7,1.2h1.1l-4.2,8.2h1.7l4.1-8.2h2.9l0.7-1.2H173z"/>
				<path class="st4" d="M272.9,104.7c-0.6,0-1.1,0.1-1.8,0.3c-0.7,0.2-1.5,0.6-2.4,1.1c0-0.4-0.2-0.8-0.5-1.1
					c-0.3-0.2-0.9-0.3-1.5-0.3c-0.7,0-1.2,0.1-1.8,0.3c-0.6,0.2-1.1,0.6-1.9,0.9l0.6-1H262l-4.9,9.5h1.6l3.7-7.1
					c0.9-0.4,1.5-0.7,1.9-0.9c0.6-0.2,0.9-0.2,1.3-0.2c0.6,0,0.9,0,1.1,0.2c0.2,0.2,0.2,0.6,0.1,1.1c0,0.2-0.1,0.5-0.2,0.7
					c-0.1,0.2-0.2,0.4-0.5,0.9l-2.7,5.3h1.6l3.2-6c0-0.2,0.1-0.3,0.1-0.6c0.1-0.1,0.2-0.3,0.2-0.4c0.6-0.3,1.2-0.7,1.8-0.9
					c0.6-0.2,1-0.3,1.5-0.3c0.7,0,1,0.1,1.1,0.3c0.2,0.2,0.2,0.6,0.1,1c-0.1,0.2-0.1,0.5-0.2,0.7c-0.1,0.2-0.3,0.6-0.5,0.9l-2.7,5.3
					h1.6l3.2-6.1c0.1-0.2,0.2-0.5,0.2-0.7c0.1-0.2,0.2-0.4,0.2-0.6c0.2-0.8,0.2-1.3-0.1-1.8C274.4,104.8,273.8,104.7,272.9,104.7z"
					/>
				<polygon class="st4" points="282.6,103.4 284.4,103.4 285.3,101.7 283.5,101.7 				"/>
				<polygon class="st4" points="277,114.4 278.7,114.4 283.5,105 281.9,105 				"/>
				<path class="st4" d="M293.4,104.7c-0.7,0-1.4,0-1.9,0.2c-0.9,0.3-1.8,0.9-2.7,1.6c-1.5,1.2-2.5,2.8-3,4.5
					c-0.3,1.2-0.1,2.1,0.5,2.8c0.6,0.6,1.6,0.9,2.8,0.9c0.5,0,0.8,0,1.1-0.1c0.2,0,0.6-0.1,0.9-0.1c0.1-0.1,0.2-0.1,0.3-0.1
					c0.2-0.1,0.5-0.1,0.7-0.2c0.2,0,0.6-0.1,0.8-0.2l0.9-1.8h-0.1c-0.6,0.3-1.3,0.7-1.9,0.9c-0.1,0-0.2,0-0.3,0.1
					c-0.7,0.1-1.3,0.2-1.7,0.2c-0.9,0-1.6-0.2-1.9-0.7c-0.4-0.4-0.5-1.1-0.2-1.9c0-0.1,0.1-0.3,0.1-0.4c0.1-0.1,0.1-0.3,0.2-0.4h3.5
					h3.7c0.2-0.6,0.3-0.9,0.6-1.3c0.1-0.3,0.2-0.7,0.2-0.8c0.4-1,0.2-1.7-0.2-2.2C295.3,105,294.6,104.7,293.4,104.7z M294.4,107.8
					c0,0.1-0.1,0.2-0.1,0.3c0,0.1-0.1,0.3-0.2,0.4h-2.5h-3c0.5-0.8,1-1.4,1.8-1.9c0.3-0.3,0.7-0.4,1.1-0.6c0.3-0.2,0.8-0.2,1.3-0.2
					c0.7,0,1.3,0.1,1.5,0.4C294.5,106.7,294.5,107.3,294.4,107.8z"/>
				<path class="st4" d="M330,104.7c-0.8,0-1.5,0.1-2.3,0.4h-0.1c-0.8,0.3-1.5,0.8-2.2,1.4c-0.7,0.6-1.2,1.2-1.7,2
					c-0.5,0.8-0.8,1.6-1,2.5c-0.4,1.1-0.2,2,0.2,2.7c0.5,0.6,1.3,0.9,2.4,0.9c0.9,0,1.7-0.1,2.4-0.4h0.1c0.7-0.3,1.5-0.8,2.2-1.5
					c0.6-0.6,1.1-1.2,1.6-2c0.6-0.8,0.9-1.6,1.1-2.4c0.3-1.1,0.2-2-0.2-2.7C332,105,331.2,104.7,330,104.7z M331.1,108.4
					c-0.2,0.7-0.5,1.3-0.8,1.9c-0.3,0.6-0.7,1.1-1.1,1.6c-0.5,0.4-0.9,0.8-1.4,1c0,0.1-0.1,0.1-0.1,0.1c-0.6,0.2-1,0.3-1.6,0.3
					c-0.7,0-1.3-0.1-1.5-0.6c-0.3-0.4-0.3-1-0.1-1.8c0.2-0.7,0.5-1.3,0.8-1.9c0.3-0.7,0.7-1.1,1.1-1.6c0.5-0.4,0.9-0.8,1.4-1.1
					c0,0,0,0,0.1,0c0.4-0.2,1-0.4,1.6-0.4c0.7,0,1.1,0.2,1.5,0.7C331.2,107.1,331.3,107.6,331.1,108.4z"/>
				<path class="st4" d="M307.6,104.7c-0.6,0-1.2,0.1-1.7,0.3c-0.6,0.2-1.3,0.6-2.1,0.9l0.6-1h-1.6l-4.9,9.5h1.6l3.6-7.1
					c0.6-0.3,1.3-0.6,1.8-0.8c0.6-0.2,1.1-0.3,1.5-0.3c0.7,0,1,0.1,1.3,0.3c0.2,0.2,0.2,0.6,0.1,1.1c-0.1,0.1-0.2,0.3-0.3,0.6
					c0,0.2-0.2,0.6-0.3,0.9l-2.7,5.3h1.6l3.2-6.1c0.1-0.2,0.2-0.5,0.2-0.7c0.1-0.2,0.2-0.3,0.2-0.6c0.2-0.8,0.1-1.3-0.2-1.8
					C309,104.8,308.5,104.7,307.6,104.7z"/>
				<path class="st4" d="M319.8,102.2h-1.7l-1.3,2.8h-1l-0.7,1.2h1l-2.5,5.1c-0.1,0.2-0.2,0.4-0.3,0.7c0,0.1-0.1,0.3-0.1,0.4
					c-0.2,0.8-0.2,1.3,0.1,1.7c0.3,0.3,0.9,0.6,1.7,0.6c0.3,0,0.7-0.1,1-0.1c0.3,0,0.8-0.1,1.2-0.2l0.7-1.3h-0.1
					c-0.1,0-0.3,0.1-0.7,0.2c-0.3,0-0.7,0.1-0.9,0.1c-0.6,0-0.9-0.1-1.1-0.3c-0.1-0.2-0.1-0.6,0-0.9c0-0.2,0.1-0.4,0.2-0.7
					c0.1-0.3,0.2-0.6,0.3-0.8l2.3-4.5h3.3l0.7-1.2h-3.3L319.8,102.2z"/>
				<path class="st4" d="M207.8,105.3c-0.5-0.4-1.4-0.5-2.5-0.5c-0.7,0-1.3,0-1.9,0.1c-0.3,0.1-0.7,0.1-1,0.2
					c-0.2,0-0.3,0.1-0.5,0.1l-0.8,1.6h0.1c0.3-0.1,0.7-0.2,1.2-0.3c0.1,0,0.3-0.1,0.5-0.1c0.7-0.1,1.2-0.2,1.8-0.2
					c0.3,0,0.6,0,0.8,0c0.4,0.1,0.6,0.1,0.7,0.2c0.2,0.1,0.3,0.2,0.3,0.4c0.1,0.1,0.1,0.3,0,0.7c0,0.1-0.1,0.2-0.1,0.3
					c-0.1,0.1-0.1,0.2-0.2,0.4c-1.1,0-2.3,0.1-3.2,0.2c-0.2,0-0.3,0.1-0.6,0.1c-0.7,0.1-1.4,0.3-2.1,0.7c-0.7,0.2-1.4,0.7-1.8,1.2
					c-0.4,0.6-0.8,1.1-1,1.9c-0.2,0.7-0.1,1.2,0.2,1.7c0.3,0.4,0.9,0.7,1.7,0.7c0.4,0,0.9,0,1.2-0.1c0.5-0.1,0.8-0.2,1.1-0.3
					c0.2,0,0.3-0.1,0.6-0.2c0.1-0.1,0.2-0.1,0.3-0.2c0.3-0.1,0.6-0.2,0.8-0.3l-0.6,1h1.6l3.3-6.4c0.1-0.1,0.2-0.3,0.2-0.5
					c0.1-0.2,0.1-0.3,0.2-0.6C208.5,106.2,208.3,105.6,207.8,105.3z M204.1,112.1c-0.6,0.3-1.2,0.6-1.8,0.8v0.1
					c-0.6,0.2-1.2,0.3-1.7,0.3c-0.6,0-1-0.1-1.2-0.3c-0.2-0.2-0.2-0.6-0.1-1c0.1-0.4,0.4-0.9,0.7-1.1c0.3-0.3,0.8-0.7,1.3-0.8
					c0.3-0.1,0.7-0.2,1.2-0.3c0.2,0,0.5-0.1,0.7-0.1c0.8-0.1,1.6-0.2,2.5-0.2L204.1,112.1z"/>
				<polygon class="st4" points="181.9,101.7 181.1,103.4 183,103.4 183.8,101.7 				"/>
				<path class="st4" d="M220.1,104.7c-0.6,0-1.1,0.1-1.8,0.3c-0.6,0.2-1.3,0.6-1.9,0.9l0.5-1h-1.6l-4.9,9.5h1.7l3.6-7.1
					c0.6-0.3,1.2-0.6,1.7-0.8c0.6-0.2,1.1-0.3,1.6-0.3c0.6,0,1,0.1,1.1,0.3c0.2,0.2,0.2,0.6,0.1,1.1c-0.1,0.1-0.1,0.3-0.3,0.6
					c-0.1,0.2-0.2,0.6-0.3,0.9l-2.8,5.3h1.7l3.1-6.1c0.1-0.2,0.2-0.5,0.3-0.7c0-0.2,0.1-0.3,0.1-0.6c0.2-0.8,0.2-1.3-0.1-1.8
					C221.5,104.8,220.9,104.7,220.1,104.7z"/>
				<path class="st4" d="M192.8,104.7c-0.6,0-1.1,0.1-1.7,0.3c-0.7,0.2-1.2,0.6-2,0.9l0.6-1h-1.7l-4.8,9.5h1.6l3.6-7.1
					c0.6-0.3,1.3-0.6,1.8-0.8c0.6-0.2,1-0.3,1.5-0.3c0.7,0,1,0.1,1.3,0.3c0.1,0.2,0.2,0.6,0,1.1c0,0.1-0.1,0.3-0.2,0.6
					c-0.1,0.2-0.2,0.6-0.3,0.9l-2.7,5.3h1.6l3.2-6.1c0.1-0.2,0.1-0.5,0.2-0.7c0.1-0.2,0.2-0.3,0.2-0.6c0.2-0.8,0.1-1.3-0.2-1.8
					C194.2,104.8,193.7,104.7,192.8,104.7z"/>
				<polygon class="st4" points="236.3,114.4 237.9,114.4 242.8,105 241.1,105 				"/>
				<path class="st4" d="M233.1,104.7c-0.8,0-1.7,0.1-2.5,0.4c-0.8,0.3-1.6,0.8-2.3,1.3c-0.7,0.7-1.3,1.3-1.7,2.1
					c-0.4,0.8-0.9,1.6-1.1,2.5c-0.1,0.6-0.2,1.1-0.1,1.6c0,0.5,0.2,0.8,0.5,1.1c0.2,0.3,0.7,0.6,1,0.7c0.5,0.1,1,0.2,1.6,0.2
					c0.6,0,1.1-0.1,1.8-0.2c0.6-0.2,1.1-0.3,1.7-0.6l0.8-1.8h-0.1c-0.1,0.1-0.2,0.2-0.6,0.3c-0.2,0.1-0.6,0.2-0.9,0.5
					c-0.2,0.1-0.6,0.2-1,0.3c-0.4,0.1-0.8,0.1-1.1,0.1c-0.8,0-1.3-0.2-1.6-0.7c-0.4-0.4-0.4-1-0.1-1.8c0.3-1.3,1-2.5,1.9-3.5
					c1-0.9,2.1-1.3,3.2-1.3c0.3,0,0.7,0,0.9,0.1c0.3,0.1,0.6,0.2,0.7,0.3c0.2,0.1,0.5,0.2,0.6,0.3c0.1,0.1,0.2,0.2,0.4,0.3h0.1
					l0.8-1.7c-0.3-0.2-0.7-0.5-1.1-0.6C234.3,104.8,233.7,104.7,233.1,104.7z"/>
				<polygon class="st4" points="242.7,101.7 241.8,103.4 243.7,103.4 244.5,101.7 				"/>
				<path class="st4" d="M251.9,104.7c-0.6,0-1.2,0-1.8,0.1c-0.5,0.1-0.7,0.1-0.9,0.2c-0.2,0-0.5,0.1-0.6,0.1l-0.7,1.6
					c0.3-0.1,0.8-0.2,1.3-0.3c0.1,0,0.2-0.1,0.3-0.1c0.7-0.1,1.3-0.2,1.7-0.2c0.3,0,0.7,0,0.9,0c0.2,0.1,0.4,0.1,0.7,0.2
					c0.1,0.1,0.2,0.2,0.3,0.4c0,0.1,0,0.3,0,0.7c-0.1,0.1-0.1,0.2-0.2,0.3c0,0.1-0.1,0.2-0.1,0.4c-1.2,0-2.3,0.1-3.3,0.2
					c0,0-0.2,0.1-0.3,0.1c-0.8,0.1-1.5,0.3-2.1,0.7c-0.8,0.2-1.4,0.7-1.8,1.2c-0.6,0.6-0.9,1.1-1,1.9c-0.2,0.7-0.1,1.2,0.2,1.7
					c0.3,0.4,0.9,0.7,1.7,0.7c0.5,0,0.9,0,1.3-0.1c0.3-0.1,0.8-0.2,1-0.3c0.2,0,0.5-0.1,0.7-0.2c0.1-0.1,0.2-0.1,0.3-0.2
					c0.1-0.1,0.5-0.2,0.6-0.3l-0.5,1h1.6l3.3-6.4c0-0.1,0.1-0.3,0.2-0.5c0-0.2,0.1-0.3,0.1-0.6c0.2-0.8,0.1-1.3-0.3-1.7
					C254,104.8,253.2,104.7,251.9,104.7z M250.8,112.1c-0.6,0.3-1.1,0.6-1.6,0.8v0.1c-0.7,0.2-1.3,0.3-1.7,0.3c-0.6,0-1-0.1-1.3-0.3
					c-0.2-0.2-0.3-0.6-0.2-1c0.2-0.4,0.5-0.9,0.8-1.1c0.2-0.3,0.7-0.7,1.2-0.8c0.3-0.1,0.7-0.2,1.2-0.3c0.2,0,0.3-0.1,0.6-0.1
					c0.7-0.1,1.5-0.2,2.4-0.2L250.8,112.1z"/>
				<polygon class="st4" points="383.9,112 382.7,114.4 384.7,114.4 386,112 				"/>
				<path class="st4" d="M379.5,105.3c-0.5-0.4-1.3-0.5-2.5-0.5c-0.6,0-1.3,0-1.8,0.1c-0.5,0.1-0.8,0.1-1.1,0.2
					c-0.1,0-0.3,0.1-0.5,0.1l-0.8,1.6h0.1c0.3-0.1,0.7-0.2,1.1-0.3c0.2,0,0.3-0.1,0.6-0.1c0.7-0.1,1.2-0.2,1.7-0.2
					c0.3,0,0.7,0,0.9,0c0.2,0.1,0.5,0.1,0.7,0.2c0.1,0.1,0.2,0.2,0.3,0.4c0,0.1,0,0.3,0,0.7c-0.1,0.1-0.1,0.2-0.2,0.3
					c0,0.1-0.1,0.2-0.1,0.4c-1.2,0-2.3,0.1-3.3,0.2c-0.1,0-0.3,0.1-0.6,0.1c-0.7,0.1-1.4,0.3-1.9,0.7c-0.8,0.2-1.4,0.7-1.8,1.2
					c-0.6,0.6-0.9,1.1-1.1,1.9c-0.1,0.7,0,1.2,0.4,1.7c0.3,0.4,0.9,0.7,1.7,0.7c0.5,0,0.8,0,1.3-0.1c0.3-0.1,0.7-0.2,1-0.3
					c0.2,0,0.4-0.1,0.6-0.2c0.2-0.1,0.3-0.1,0.5-0.2c0.2-0.1,0.6-0.2,0.7-0.3l-0.5,1h1.6l3.3-6.4c0-0.1,0.1-0.3,0.2-0.5
					c0-0.2,0.1-0.3,0.1-0.6C380.2,106.2,380.1,105.6,379.5,105.3z M375.8,112.1c-0.6,0.3-1.1,0.6-1.7,0.8c0,0,0,0-0.1,0.1
					c-0.6,0.2-1.1,0.3-1.6,0.3c-0.7,0-1-0.1-1.3-0.3c-0.2-0.2-0.3-0.6-0.2-1c0.2-0.4,0.5-0.9,0.7-1.1c0.3-0.3,0.8-0.7,1.4-0.8
					c0.3-0.1,0.7-0.2,1-0.3c0.2,0,0.6-0.1,0.8-0.1c0.7-0.1,1.5-0.2,2.4-0.2L375.8,112.1z"/>
				<polygon class="st4" points="360.1,114.4 362.3,114.4 363.5,112 361.4,112 				"/>
				<path class="st4" d="M355.7,104.7c-0.7,0-1.4,0.1-1.9,0.2c-0.7,0.2-1.2,0.4-1.7,0.8c-0.4,0.3-0.8,0.7-1.1,1.1
					c-0.3,0.3-0.4,0.8-0.6,1.2c-0.2,0.4-0.1,0.9,0.1,1.2c0.2,0.3,0.6,0.7,1.3,0.9c0.3,0,0.5,0.1,0.9,0.2c0.2,0,0.6,0.1,0.8,0.1
					c0.3,0.1,0.7,0.2,0.9,0.4c0.1,0.1,0.2,0.3,0.1,0.7c-0.1,0.5-0.5,1-1,1.2c-0.6,0.3-1.2,0.4-2,0.4c-0.5,0-0.8,0-1.1-0.1
					c-0.4-0.1-0.6-0.2-0.8-0.3c-0.2-0.1-0.4-0.2-0.7-0.3c-0.1-0.2-0.2-0.3-0.4-0.4h-0.1l-0.8,1.8c0.3,0.1,0.8,0.3,1.3,0.6
					c0.6,0.1,1.1,0.2,1.9,0.2c0.7,0,1.4-0.1,2.1-0.2c0.6-0.2,1.2-0.4,1.6-0.8c0.6-0.3,0.9-0.7,1.3-1.1c0.3-0.4,0.6-0.8,0.7-1.2
					c0.1-0.6,0.1-1-0.1-1.3c-0.2-0.3-0.7-0.5-1.4-0.8c-0.2,0-0.5-0.1-0.8-0.2c-0.3,0-0.6-0.1-0.9-0.1c-0.3-0.1-0.7-0.3-0.8-0.4
					c-0.2-0.2-0.2-0.4-0.1-0.8c0.1-0.4,0.4-0.9,0.9-1.2c0.6-0.2,1.2-0.4,1.9-0.4c0.3,0,0.7,0.1,1,0.1c0.3,0.1,0.6,0.2,0.8,0.3
					c0.2,0.1,0.5,0.2,0.6,0.3c0.1,0.2,0.2,0.2,0.3,0.3h0.1l0.8-1.7c-0.3-0.1-0.8-0.3-1.2-0.4C356.8,104.7,356.2,104.7,355.7,104.7z"
					/>
			</g>
		</g>
		<g>
			<path d="M427.9,44.5l10,20.6h-3.6l-2.1-4.5h-8.5l-2.1,4.5H418L427.9,44.5z M425.1,57.5h5.7l-2.8-6L425.1,57.5z"/>
			<path d="M439.7,68.9l1.7-2.8c1.2,0.9,2.7,1.5,4.5,1.5c2.2,0,4.2-0.7,4.2-3c0-0.4-0.1-1-0.3-1.5c-1,0.8-2.4,1.3-3.9,1.3
				c-4.2,0-7.1-3-7.1-7s2.9-7,7.1-7c1.5,0,2.8,0.5,3.8,1.3v-1.1h3.2v11.4c0.4,1,0.6,2,0.6,2.8c0,4.1-3.8,5.6-7.5,5.6
				C443.9,70.7,441.6,70.1,439.7,68.9z M449.7,59.6v-4.1c-0.8-1.2-2.2-1.9-3.8-1.9c-2.2,0-3.9,1.6-3.9,4s1.7,4,3.9,4
				C447.5,61.5,448.9,60.8,449.7,59.6z"/>
			<path d="M456.1,57.9c0-4.2,3.2-7.4,7.3-7.4c4,0,6.7,2.8,6.9,7.4v0.9h-10.9c0.3,2,2,3.4,4.1,3.4c1.7,0,3-0.8,3.7-1.6l2.1,2.3
				c-1.2,1.4-3.3,2.5-5.9,2.5C459.2,65.3,456.1,62.1,456.1,57.9z M459.4,56.3h7.4c-0.4-2-1.7-2.9-3.6-2.9
				C461.5,53.4,459.9,54.5,459.4,56.3z"/>
			<path d="M473.4,50.8h3.2v1.3c1-1.1,2.5-1.6,4-1.6c3.6,0,5.8,2.5,5.8,6.2v8.4h-3.2v-8.3c0-1.6-1.1-3.2-3.3-3.2
				c-1.6,0-2.8,0.8-3.4,2.5v9h-3.2V50.8z"/>
			<path d="M488,50.8h2.8V48l3.2-1.5v4.3h4.4l-0.7,2.8H494v6.5c0,1.5,0.4,2.1,2,2.1h2v2.9h-2.8c-2.8,0-4.4-1.6-4.4-4.4v-7.2h-2.1
				L488,50.8z"/>
			<path d="M500,57.9c0-4.2,3.2-7.4,7.3-7.4c4,0,6.7,2.8,6.9,7.4v0.9h-10.9c0.3,2,2,3.4,4.1,3.4c1.7,0,3-0.8,3.7-1.6l2.1,2.3
				c-1.2,1.4-3.3,2.5-5.9,2.5C503.1,65.3,500,62.1,500,57.9z M503.3,56.3h7.4c-0.4-2-1.7-2.9-3.6-2.9
				C505.4,53.4,503.9,54.5,503.3,56.3z"/>
			<path d="M534.3,64.1c-1,0.8-2.3,1.3-3.8,1.3c-4.2,0-7.4-3.2-7.4-7.4s3.1-7.4,7.4-7.4c1.5,0,2.8,0.5,3.8,1.3v-7.1h3.2v20.4h-3.2
				V64.1z M534.3,60.4v-4.9c-0.8-1.2-2.2-2-3.8-2c-2.4,0-4.2,1.9-4.2,4.4c0,2.5,1.7,4.4,4.2,4.4C532,62.3,533.5,61.5,534.3,60.4z"/>
			<path d="M540.6,57.9c0-4.2,3.2-7.4,7.3-7.4c4,0,6.7,2.8,6.9,7.4v0.9h-10.9c0.3,2,2,3.4,4.1,3.4c1.7,0,3-0.8,3.7-1.6l2.1,2.3
				c-1.2,1.4-3.3,2.5-5.9,2.5C543.7,65.3,540.6,62.1,540.6,57.9z M543.9,56.3h7.4c-0.4-2-1.7-2.9-3.6-2.9
				C546,53.4,544.5,54.5,543.9,56.3z"/>
		</g>
		<polygon class="st5" points="580.8,71.9 562.4,66.9 580.8,61 580.8,56.3 562.4,50.4 580.8,45.5 580.8,40.9 554.9,47.9 554.9,52.4 
			574.1,58.7 554.9,64.9 554.9,64.9 554.9,69.5 580.8,76.4 		"/>
		<polygon class="st5" points="392.4,45.5 410.8,50.4 392.4,56.3 392.4,61 410.8,66.9 392.4,71.9 392.4,76.4 418.3,69.5 418.3,64.9 
			399.1,58.7 418.3,52.4 418.3,52.4 418.3,47.9 392.4,40.9 		"/>
		<line class="st5" x1="418.3" y1="81.5" x2="418.3" y2="14.8"/>
		<line class="st5" x1="554.9" y1="81.5" x2="554.9" y2="14.8"/>
		<g>
			<g>
				<rect x="580.8" y="13.4" width="368.2" height="73.3"/>
				<path class="st2" d="M692.2,58.7l1,3.7l-0.5,0.2c-1.1,0.5-2.2,0.9-3.9,0.9c-3.6,0-5.9-2.2-5.9-5.9l0-10.9h-3.7V43h3.7v-5.4
					l4.5-1.2V43h4.7v3.7h-4.7l0,10.3c0,1.3,0.9,2.2,2.2,2.3c0.8,0,1.5-0.2,2.2-0.5C691.8,58.9,692.2,58.7,692.2,58.7z M802.6,43
					l0,20.3h4.5l0-20.3H802.6z M831.1,53.2c0,5.9-4.4,10.4-10.3,10.4c-5.9,0-10.3-4.5-10.3-10.4c0-5.9,4.4-10.4,10.3-10.4
					C826.7,42.8,831.1,47.3,831.1,53.2z M826.7,53.2c0-3.6-2.5-6.2-5.8-6.2c-3.4,0-5.9,2.6-5.9,6.2c0,3.6,2.5,6.2,5.9,6.2
					C824.2,59.3,826.7,56.7,826.7,53.2z M772.5,52.6c0,0,0.4,6.3-6.5,6.3c-6.9,0-6.5-6.4-6.5-6.4V36.3h-4.7v16.1
					c0,6.7,4.4,11.1,11.2,11.1c6.8,0,11.2-4.3,11.2-11V36.3h-4.7V52.6z M804.8,33.5c-1.9,0-3.4,1.5-3.4,3.4c0,0.9,0.3,1.6,0.8,2.2
					h5.1c0.5-0.6,0.8-1.4,0.8-2.2C808.2,35,806.7,33.5,804.8,33.5z M726.7,42.9c-1.3,0.2-2.8,0.6-4,1.6V43h0l0,0h-4.5l0,20.3h4.5v0
					l0-12.3c0-0.4,0.1-0.8,0.2-1.2c0.4-0.9,1.1-1.9,2.2-2.4c0.7-0.3,1.4-0.4,2-0.4l0,0c0.6,0,1.6,0.1,2.3,0.5v-4.3
					C729.4,43.1,728,42.7,726.7,42.9z M635.8,36.3l-5.1,19.2l-6.2-19.2h-4.8l-6.2,19.2l-5.1-19.2h-4.7l7.2,27h4.7l6.5-20l6.5,20l0,0
					h4.7l7.2-27H635.8z M650.3,63.5c-5.9,0-10.3-4.4-10.3-10.4c0-1.3,0.2-2.6,0.7-3.8c0.7-1.8,1.9-3.5,3.5-4.6
					c1.7-1.3,3.9-1.9,6-1.9c2.8,0,5.1,1,6.8,2.8c1.1,1.2,1.9,2.8,2.3,4.4c0.4,1.4,0.4,2.9,0.4,4.4h-15.4l0.1,0.4
					c0.6,2.7,2.9,4.6,5.8,4.6c2.5,0,4.2-1.2,5-2.1l3.1,2.9C656.6,62.2,653.5,63.5,650.3,63.5z M655.2,51.1c-0.2-1.3-0.8-2.5-1.9-3.3
					c-1.1-0.8-2.2-1-3.4-1c-1.7,0-3.2,0.8-4.2,2c-0.8,1-1.2,2.3-1.2,2.3H655.2z M705.2,63.5c-5.9,0-10.3-4.4-10.3-10.4
					c0-1.3,0.2-2.6,0.7-3.8c0.7-1.8,1.9-3.5,3.5-4.6c1.7-1.3,3.9-1.9,6-1.9c2.8,0,5.1,1,6.8,2.8c1.1,1.2,1.9,2.8,2.3,4.4
					c0.4,1.4,0.4,2.9,0.4,4.4h-15.4l0.1,0.4c0.6,2.7,2.9,4.6,5.8,4.6c2.5,0,4.2-1.2,5-2.1l3.1,2.9C711.5,62.2,708.5,63.5,705.2,63.5
					z M710.1,51.1c-0.2-1.3-0.8-2.5-1.9-3.3c-1.1-0.8-2.2-1-3.4-1c-1.7,0-3.2,0.8-4.2,2c-0.8,1-1.2,2.3-1.2,2.3H710.1z M670.8,50.9
					c-1.9-0.5-3.3-1-3.3-2.1c0-1.5,1.3-2,3.7-2c1,0,4,0,4,0V43l-4,0c-3.5,0-8,0.8-8,6c0,2.4,1.6,4.2,4.6,5.1
					c0.7,0.2,1.4,0.4,2.1,0.5c2.1,0.5,3.9,1,3.9,2.6c0,1.4-1.8,2.2-3.4,2.3c-2.8,0-4.6-1.6-5.1-2.2l-2.9,2.7c0,0,2.6,3.4,8.3,3.4
					c3.7,0,7.5-2.4,7.5-6.4C678,53.2,674.4,51.8,670.8,50.9z M790.7,42.8c-1.6,0-3.4,0.3-5.1,1.5l0-1.2h-4.5v20.3h0h4.5h0l0-12.3
					c0-1.8,1.5-4,4.3-4c2.5,0,4.2,1.7,4.2,4.2v12h4.5V51C798.6,46,795.4,42.8,790.7,42.8z M742.9,42.8c-1.6,0-3.4,0.3-5.1,1.5l0-1.2
					h-4.5v20.3h0h4.5h0l0-12.3c0-1.8,1.5-4,4.3-4c2.5,0,4.2,1.7,4.2,4.2v12h4.5V51C750.8,46,747.6,42.8,742.9,42.8z M844.1,42.8
					c-1.6,0-3.4,0.3-5.1,1.5l0-1.2h-4.5v20.3h0h4.5h0l0-12.3c0-1.8,1.5-4,4.3-4c2.5,0,4.2,1.7,4.2,4.2v12h4.5V51
					C852,46,848.8,42.8,844.1,42.8z"/>
				<g>
					<polygon class="st6" points="863.9,63.3 856.5,36.3 858.4,36.3 865.8,63.3 					"/>
					<path class="st2" d="M903.3,36.3l-7.3,27h-5.3l-5.5-17.9l-5.5,17.9h-5.3l-7.4-27h5.8l4.5,17.1l5.3-17.1h5.3l5.4,17.2l4.4-17.2
						H903.3z M920.3,36.3V53l0,0c0,0,0.1,2.3-1.3,3.8c-0.9,1-2.4,1.5-4.2,1.5c-1.9,0-3.3-0.5-4.2-1.5c-1.5-1.6-1.3-3.8-1.3-3.8
						l0-16.7h-2.4l-3.4,12.6v3.9c0,3.3,1.1,6.1,3.1,8.1c2,2,4.9,3.1,8.3,3.1c3.4,0,6.2-1.1,8.3-3.1c2-2,3.1-4.8,3.1-8.1V36.3H920.3z
						"/>
					<polygon class="st6" points="869.1,63.3 861.7,36.3 863.6,36.3 871,63.3 					"/>
				</g>
				<line class="st2" x1="852" y1="63.3" x2="852" y2="51"/>
				<line class="st2" x1="847.5" y1="51.3" x2="847.5" y2="63.3"/>
			</g>
			<polygon class="st5" points="621.6,13.4 617.2,29.7 612,13.4 607.9,13.4 602.6,29.7 598.3,13.4 594.3,13.4 600.4,36.3 
				604.4,36.3 609.9,19.3 615.4,36.3 615.4,36.3 619.4,36.3 625.6,13.4 			"/>
			<polygon class="st5" points="580.8,34.1 597.1,38.5 580.8,43.7 580.8,47.8 597.1,53 580.8,57.4 580.8,61.4 603.7,55.3 
				603.7,51.3 586.7,45.8 603.7,40.2 603.7,40.2 603.7,36.2 580.8,30.1 			"/>
			<polygon class="st5" points="908.3,86.8 912.6,70.5 917.9,86.8 922,86.8 927.2,70.5 931.6,86.8 935.6,86.8 929.4,63.9 
				925.4,63.9 919.9,80.8 914.4,63.9 914.4,63.9 910.4,63.9 904.3,86.8 			"/>
			<polygon class="st5" points="949,63.6 932.7,59.2 949,54 949,49.9 932.7,44.6 949,40.3 949,36.3 926.1,42.4 926.1,46.4 
				943.1,51.9 926.1,57.4 926.1,57.4 926.1,61.5 949,67.6 			"/>
		</g>
	</g>
</g>
</svg>
