<?xml version="1.0" encoding="utf-8"?>
<!-- Generator: Adobe Illustrator 26.0.1, SVG Export Plug-In . SVG Version: 6.00 Build 0)  -->
<svg version="1.1" id="Capa_1" xmlns="http://www.w3.org/2000/svg" xmlns:xlink="http://www.w3.org/1999/xlink" x="0px" y="0px"
	 viewBox="0 0 1000 1000" style="enable-background:new 0 0 1000 1000;" xml:space="preserve">
<style type="text/css">
	.st0{fill:#FFFFFF;}
</style>
<g>
	<g transform="translate(0.000000,511.000000) scale(0.100000,-0.100000)">
		<path class="st0" d="M2778.4,4991.6c-125.1-33.2-303.9-145.6-388.2-250.3c-158.3-191.5-155.8-153.2-155.8-2032.9
			c0-1585.9-2.6-1708.5-43.4-1693.2c-191.5,74.1-426.5,63.8-597.6-23c-201.7-104.7-380.5-378-475-727.9
			c-38.3-137.9-46-263-43.4-766.2c5.1-1110.9,143-1836.2,413.7-2191.2c51.1-66.4,388.2-406.1,745.7-755.9
			c357.5-347.3,661.4-651.3,676.8-674.2c12.8-25.5,23-143,25.5-265.6c0-217.1,2.6-224.7,84.3-306.5l81.7-84.3l1787.7-7.6
			c1938.4-7.7,1887.3-10.2,1976.7,130.2c20.4,33.2,43.4,168.6,53.6,332l17.9,275.8l199.2,395.8c227.3,452,383.1,896.4,464.8,1333.1
			c48.5,252.8,56.2,388.2,56.2,899c0,357.5-17.9,817.2-43.4,1136.5c-25.5,296.3-61.3,812.1-79.2,1151.8
			c-30.6,610.4-33.2,615.5-109.8,753.4c-89.4,160.9-273.3,311.6-434.2,355c-183.9,53.6-446.9,20.4-592.5-69l-122.6-79.2l-30.6,135.4
			c-117.5,523.5-717.6,761-1162,459.7c-53.6-35.8-99.6-63.8-102.2-58.7c-5.1,5.1-20.4,46-40.9,91.9
			c-43.4,109.8-201.8,270.7-337.1,339.7c-137.9,68.9-388.2,91.9-546.5,48.5c-66.4-20.4-171.1-71.5-232.4-120
			c-61.3-46-114.9-84.3-122.6-84.3c-7.7,0-12.8,401-12.8,888.7c0,988.3-7.7,1036.9-163.4,1223.3
			C3355.5,4948.1,3026.1,5055.4,2778.4,4991.6z M3189.6,4506.3l79.2-79.2l12.8-1757c12.8-1928.2,5.1-1831.1,166-1935.8
			c71.5-48.5,240.1-53.6,316.7-10.2c132.8,71.5,143,114.9,155.8,842.8c12.8,610.4,17.9,684.4,61.3,748.3
			c135.4,201.8,452,191.5,577.2-15.3c46-74.1,51.1-130.3,51.1-605.3c0-574.6,10.2-615.5,148.1-697.2
			c104.7-61.3,229.9-43.4,321.8,51.1c63.9,63.8,66.4,74.1,66.4,403.5c0,186.4,7.7,375.4,15.3,421.4
			c23,114.9,158.3,247.7,273.2,268.1c130.3,25.5,209.4,0,319.2-102.1l94.5-84.3l12.8-521c12.8-566.9,30.7-633.4,168.6-684.4
			c125.1-48.5,214.5-30.7,306.5,61.3c84.3,84.3,86.8,91.9,86.8,296.3c0,339.7,109.8,485.2,362.7,485.2
			c122.6,0,245.2-71.5,303.9-181.3c12.8-28.1,35.8-298.8,48.5-605.3c15.3-303.9,43.4-778.9,69-1052.2
			c23-283.5,43.4-766.2,43.4-1123.7c2.5-554.2-5.1-658.9-56.2-914.3c-86.8-431.6-186.4-710-434.2-1205.4
			c-219.6-444.4-222.2-446.9-229.8-669.1l-10.2-224.7H4926.2H3332.6v150.7c0,81.7-17.9,194.1-40.9,247.7
			c-28.1,71.5-252.8,311.6-789.1,840.2c-702.3,697.2-750.8,750.8-804.5,893.8c-158.3,434.2-209.4,853-214.5,1685.5
			c-2.6,597.6,0,651.2,56.2,822.3c40.9,130.2,86.8,214.5,153.2,286c114.9,122.6,204.3,148.1,329.5,102.1
			c84.3-33.2,99.6-53.6,160.9-237.5c94.5-288.6,219.6-367.8,372.9-237.5l66.4,58.7v2002.2c0,1103.3,10.2,2048.2,20.4,2101.8
			c23,104.7,104.7,212,191.5,250.3C2936.7,4628.9,3102.7,4590.6,3189.6,4506.3z"/>
		<path class="st0" d="M5087.1,4457.8c-135.3-135.4-247.7-265.6-247.7-286c0-51.1,487.8-536.3,538.9-536.3
			c48.5,0,99.6,51.1,99.6,99.6c0,23-66.4,104.7-145.6,186.4l-145.5,148.1h1695.7h1695.8l-145.6-148.1
			c-79.2-81.7-145.6-163.5-145.6-186.4c0-48.5,51.1-99.6,102.2-99.6s536.3,485.2,536.3,536.3s-487.8,536.3-538.8,536.3
			c-48.5,0-99.6-51.1-99.6-99.6c0-23,66.4-104.7,145.6-186.4l145.6-148.1h-1696H5186.7l145.5,148.1
			c148.1,148.1,171.1,199.2,114.9,255.4C5385.9,4738.7,5332.2,4705.5,5087.1,4457.8z"/>
	</g>
</g>
</svg>
